<svg width="40.000000" height="40.000000" viewBox="0 0 40 40" fill="none" xmlns="http://www.w3.org/2000/svg" xmlns:xlink="http://www.w3.org/1999/xlink">
	<desc>
			Created with Pixso.
	</desc>
	<defs/>
	<circle id="Ellipse 14" cx="20.000000" cy="20.000000" r="20.000000" fill="#FFFFFF" fill-opacity="1.000000"/>
	<path id="Vector" d="M24.48 10L15.51 10C12.47 10 10 12.47 10 15.51L10 24.48C10 27.52 12.47 30 15.51 30L24.48 30C27.52 30 30 27.52 30 24.48L30 15.51C30 12.47 27.52 10 24.48 10ZM28.22 24.48C28.22 26.54 26.54 28.22 24.48 28.22L15.51 28.22C13.45 28.22 11.77 26.54 11.77 24.48L11.77 15.51C11.77 13.45 13.45 11.77 15.51 11.77L24.48 11.77C26.54 11.77 28.22 13.45 28.22 15.51L28.22 24.48L28.22 24.48Z" fill="#292929" fill-opacity="1.000000" fill-rule="nonzero"/>
	<path id="Vector" d="M20 14.84C17.15 14.84 14.84 17.15 14.84 20C14.84 22.84 17.15 25.15 20 25.15C22.84 25.15 25.15 22.84 25.15 20C25.15 17.15 22.84 14.84 20 14.84ZM20 23.37C18.13 23.37 16.62 21.86 16.62 20C16.62 18.13 18.13 16.62 20 16.62C21.86 16.62 23.37 18.13 23.37 20C23.37 21.86 21.86 23.37 20 23.37Z" fill="#292929" fill-opacity="1.000000" fill-rule="nonzero"/>
	<path id="Vector" d="M25.36 13.34C25.02 13.34 24.69 13.48 24.45 13.72C24.2 13.96 24.06 14.3 24.06 14.64C24.06 14.98 24.2 15.32 24.45 15.56C24.69 15.8 25.02 15.94 25.36 15.94C25.71 15.94 26.04 15.8 26.29 15.56C26.53 15.32 26.67 14.98 26.67 14.64C26.67 14.3 26.53 13.96 26.29 13.72C26.04 13.48 25.71 13.34 25.36 13.34Z" fill="#292929" fill-opacity="1.000000" fill-rule="nonzero"/>
</svg>
