<svg width="40.000000" height="40.000000" viewBox="0 0 40 40" fill="none" xmlns="http://www.w3.org/2000/svg" xmlns:xlink="http://www.w3.org/1999/xlink">
	<desc>
			Created with Pixso.
	</desc>
	<defs/>
	<circle id="Ellipse 12" cx="20.000000" cy="20.000000" r="20.000000" fill="#FFFFFF" fill-opacity="1.000000"/>
	<path id="Vector" d="M19.76 25.86L21.07 25.86C21.07 25.86 21.47 25.82 21.67 25.61C21.86 25.42 21.85 25.06 21.85 25.06C21.85 25.06 21.83 23.39 22.65 23.14C23.46 22.9 24.49 24.76 25.59 25.48C26.42 26.02 27.05 25.9 27.05 25.9L29.99 25.86C29.99 25.86 31.53 25.77 30.8 24.62C30.74 24.53 30.37 23.78 28.61 22.22C26.77 20.6 27.02 20.86 29.24 18.06C30.59 16.35 31.13 15.3 30.96 14.85C30.8 14.43 29.81 14.54 29.81 14.54L26.5 14.56C26.5 14.56 26.25 14.53 26.07 14.63C25.89 14.73 25.78 14.97 25.78 14.97C25.78 14.97 25.26 16.29 24.56 17.42C23.08 19.79 22.5 19.92 22.25 19.77C21.69 19.43 21.83 18.39 21.83 17.65C21.83 15.35 22.2 14.39 21.12 14.14C20.76 14.06 20.49 14.01 19.57 14C18.39 13.99 17.39 14 16.83 14.26C16.45 14.44 16.16 14.83 16.34 14.85C16.56 14.88 17.05 14.98 17.32 15.32C17.66 15.76 17.64 16.74 17.64 16.74C17.64 16.74 17.84 19.45 17.19 19.79C16.74 20.02 16.13 19.54 14.82 17.39C14.14 16.29 13.64 15.07 13.64 15.07C13.64 15.07 13.54 14.84 13.36 14.72C13.15 14.57 12.86 14.52 12.86 14.52L9.71 14.54C9.71 14.54 9.24 14.55 9.07 14.75C8.91 14.92 9.05 15.28 9.05 15.28C9.05 15.28 11.52 20.75 14.3 23.5C16.86 26.03 19.76 25.86 19.76 25.86Z" fill="#292929" fill-opacity="1.000000" fill-rule="evenodd"/>
</svg>
