<svg width="69.000000" height="60.000000" viewBox="0 0 69 60" fill="none" xmlns="http://www.w3.org/2000/svg" xmlns:xlink="http://www.w3.org/1999/xlink">
	<desc>
			Created with Pixso.
	</desc>
	<defs>
		<clipPath id="clip414_183">
			<rect id="Frame" width="58.000000" height="45.000000" transform="translate(0.000000 16.900635) rotate(-17.729836)" fill="white" fill-opacity="0"/>
		</clipPath>
	</defs>
	<rect id="Frame" width="58.000000" height="45.000000" transform="translate(0.000000 16.900635) rotate(-17.729836)" fill="#FFFFFF" fill-opacity="0"/>
	<g clip-path="url(#clip414_183)">
		<path id="Vector" d="M63.64 25.52C66.59 34.72 56.62 46.12 41.38 50.99C26.05 55.81 11.32 52.31 8.4 43.18C8.24 42.67 8.14 42.14 8.08 41.68C6.6 32.81 16.32 22.38 30.76 17.76C45.2 13.15 59.17 16.01 63.13 24.16C63.25 24.52 63.48 25.01 63.64 25.52Z" fill="#F281A3" fill-opacity="1.000000" fill-rule="nonzero"/>
		<path id="Vector" d="M63.03 24.11C63.25 26.29 62.2 28.48 61.53 31.11C60.86 33.74 59.47 36.11 56.58 37.03C55.14 37.5 53.73 38.59 52.81 39.93C51.35 42.09 48.82 43.38 46.27 43.63C44.04 43.86 41.7 44.77 39.77 46.19C36.58 48.42 33.43 49.02 29.96 48.36C26.82 47.76 23.74 47.85 21.07 48.47C17.15 49.4 14.47 48.48 12.05 45.88C10.57 44.26 8.9 43.26 8 41.7C6.52 32.84 16.24 22.41 30.69 17.79C45.11 13.1 59.07 15.96 63.03 24.11Z" fill="#EE5D7C" fill-opacity="1.000000" fill-rule="nonzero"/>
		<path id="Vector" d="M62.15 20.85C62.97 23.4 61.67 25.83 60.9 28.89C60.23 31.52 58.84 33.9 55.95 34.82C54.51 35.28 53.11 36.37 52.18 37.72C50.65 39.9 48.19 41.17 45.64 41.42C43.41 41.65 41.07 42.56 39.14 43.98C35.95 46.21 32.8 46.81 29.33 46.15C26.19 45.54 23.12 45.64 20.47 46.33C16.48 47.28 13.77 46.29 11.35 43.69C9.64 41.82 7.58 40.63 6.91 38.51C4.38 30.62 14.7 20.32 29.94 15.45C45.18 10.58 59.63 12.96 62.15 20.85Z" fill="#AAD7D4" fill-opacity="1.000000" fill-rule="nonzero"/>
		<path id="Vector" d="M60.56 15.88C63.5 25.08 53.51 36.41 38.28 41.28C22.97 46.17 8.24 42.67 5.32 33.54C5.04 32.67 4.9 31.75 4.84 30.8C4.39 22.17 13.86 12.46 27.58 8.08C41.3 3.69 54.72 6.08 59.36 13.37C59.83 14.1 60.26 14.93 60.56 15.88Z" fill="#EE5D7C" fill-opacity="1.000000" fill-rule="nonzero"/>
		<path id="Vector" d="M59.36 13.37C59.79 21.92 50.32 31.63 36.52 36.04C22.73 40.45 9.45 38.02 4.84 30.8C4.39 22.17 13.86 12.46 27.58 8.08C41.3 3.69 54.72 6.08 59.36 13.37Z" fill="#F281A3" fill-opacity="1.000000" fill-rule="nonzero"/>
		<path id="Vector" d="M31.31 12.76C33.28 15.43 29.94 21.17 23.94 25.58C17.95 29.99 11.5 31.49 9.56 28.89C7.59 26.22 10.93 20.48 16.92 16.07C22.89 11.59 29.36 10.16 31.31 12.76Z" fill="#F2AEBD" fill-opacity="1.000000" fill-rule="nonzero"/>
		<path id="Vector" d="M41.1 18C40.81 18.09 40.98 18.6 41.27 18.51C41.6 18.32 41.46 17.88 41.1 18Z" fill="#EE3686" fill-opacity="1.000000" fill-rule="nonzero"/>
		<path id="Vector" d="M43.28 12.87C42.35 13.17 42.81 14.64 43.75 14.34C44.69 14.03 44.22 12.57 43.28 12.87Z" fill="#EE3686" fill-opacity="1.000000" fill-rule="nonzero"/>
		<path id="Vector" d="M34.71 24.39C33.77 24.69 34.24 26.15 35.17 25.85C36.21 25.6 35.72 24.07 34.71 24.39Z" fill="#EE3686" fill-opacity="1.000000" fill-rule="nonzero"/>
		<path id="Vector" d="M23.18 30.41L23.11 30.43C22.82 30.52 22.98 31.04 23.27 30.94L23.34 30.92C23.63 30.83 23.47 30.32 23.18 30.41Z" fill="#EE3686" fill-opacity="1.000000" fill-rule="nonzero"/>
		<path id="Vector" d="M31.91 20.37C31.55 20.25 31.31 20.73 31.6 20.88C31.76 20.9 31.86 20.95 32.08 20.88C32.44 20.77 32.27 20.26 31.91 20.37Z" fill="#EE3686" fill-opacity="1.000000" fill-rule="nonzero"/>
		<path id="Vector" d="M32.3 9.38C32.01 9.48 32.17 9.99 32.46 9.9C32.75 9.8 32.59 9.29 32.3 9.38Z" fill="#EE3686" fill-opacity="1.000000" fill-rule="nonzero"/>
		<path id="Vector" d="M27.75 31.52L27.54 31.59C26.6 31.89 27.09 33.42 28.03 33.12L28.25 33.06C29.23 32.66 28.77 31.2 27.75 31.52Z" fill="#EE3686" fill-opacity="1.000000" fill-rule="nonzero"/>
		<path id="Vector" d="M9.29 29.3C8.86 29.19 8.47 29.48 8.37 29.91C8.28 30.1 8.28 30.35 8.35 30.56C8.49 31 8.94 31.18 9.3 31.06C9.66 30.95 9.86 30.56 9.81 30.18C10.01 29.79 9.63 29.35 9.29 29.3Z" fill="#EE3686" fill-opacity="1.000000" fill-rule="nonzero"/>
		<path id="Vector" d="M45.18 26.76C44.24 27.06 44.7 28.52 45.64 28.22C46.65 27.89 46.19 26.43 45.18 26.76Z" fill="#EE3686" fill-opacity="1.000000" fill-rule="nonzero"/>
	</g>
</svg>
