<svg width="64.000000" height="58.000000" viewBox="0 0 64 58" fill="none" xmlns="http://www.w3.org/2000/svg" xmlns:xlink="http://www.w3.org/1999/xlink">
	<desc>
			Created with Pixso.
	</desc>
	<defs>
		<clipPath id="clip414_147">
			<rect id="Frame" width="51.731621" height="39.539661" transform="translate(0.000000 20.799072) rotate(-23.706898)" fill="white" fill-opacity="0"/>
		</clipPath>
	</defs>
	<rect id="Frame" width="51.731621" height="39.539661" transform="translate(0.000000 20.799072) rotate(-23.706898)" fill="#FFFFFF" fill-opacity="0"/>
	<g clip-path="url(#clip414_147)">
		<path id="Vector" d="M56.93 22.28C60.34 30.05 52.55 40.97 39.54 46.69C26.44 52.37 13.13 50.71 9.74 43C9.56 42.57 9.43 42.11 9.33 41.71C7.23 34.09 14.88 24.04 27.22 18.62C39.55 13.21 52.13 14.38 56.35 21.13C56.49 21.44 56.74 21.85 56.93 22.28Z" fill="#F7AD1A" fill-opacity="1.000000" fill-rule="nonzero"/>
		<path id="Vector" d="M56.26 21.1C56.65 22.99 55.92 25 55.56 27.37C55.2 29.73 54.18 31.94 51.71 33.03C50.48 33.57 49.34 34.66 48.64 35.92C47.55 37.95 45.43 39.32 43.2 39.78C41.25 40.2 39.27 41.21 37.69 42.64C35.08 44.89 32.35 45.72 29.23 45.48C26.4 45.25 23.7 45.62 21.4 46.41C18.02 47.6 15.57 47.06 13.2 45.01C11.76 43.73 10.2 43.02 9.27 41.74C7.17 34.12 14.82 24.07 27.16 18.65C39.46 13.17 52.04 14.34 56.26 21.1Z" fill="#EE8034" fill-opacity="1.000000" fill-rule="nonzero"/>
		<path id="Vector" d="M55.19 18.33C56.14 20.49 55.21 22.74 54.81 25.49C54.45 27.86 53.43 30.07 50.96 31.15C49.73 31.69 48.59 32.78 47.89 34.04C46.74 36.1 44.68 37.44 42.45 37.9C40.5 38.32 38.52 39.34 36.94 40.77C34.33 43.02 31.6 43.85 28.48 43.6C25.65 43.37 22.95 43.75 20.67 44.6C17.23 45.81 14.76 45.21 12.39 43.16C10.71 41.69 8.8 40.84 8.01 39.05C5.09 32.39 13.28 22.39 26.29 16.68C39.3 10.96 52.27 11.67 55.19 18.33Z" fill="#F7ADBB" fill-opacity="1.000000" fill-rule="nonzero"/>
		<path id="Vector" d="M53.62 14.24C57.03 22.01 49.22 32.87 36.21 38.59C23.19 44.3 9.88 42.64 6.5 34.93C6.17 34.19 5.97 33.4 5.83 32.58C4.63 25.16 12.13 15.76 23.85 10.61C35.63 5.44 47.62 6.28 52.36 12.22C52.84 12.82 53.29 13.5 53.62 14.24Z" fill="#EE8034" fill-opacity="1.000000" fill-rule="nonzero"/>
		<path id="Vector" d="M52.07 12.05C53.2 19.5 45.71 28.9 33.93 34.07C22.21 39.22 10.22 38.38 5.5 32.5C4.34 24.99 11.84 15.59 23.56 10.45C35.33 5.28 47.33 6.12 52.07 12.05Z" fill="#F7AD1A" fill-opacity="1.000000" fill-rule="nonzero"/>
		<path id="Vector" d="M27.26 14.19C29.23 16.34 26.79 21.68 21.9 26.11C17 30.54 11.45 32.47 9.5 30.38C7.53 28.23 9.96 22.89 14.86 18.46C19.73 13.97 25.31 12.1 27.26 14.19Z" fill="#FFC928" fill-opacity="1.000000" fill-rule="nonzero"/>
		<path id="Vector" d="M36.37 17.84C36.12 17.95 36.31 18.38 36.56 18.28C36.84 18.08 36.67 17.71 36.37 17.84Z" fill="#EE8034" fill-opacity="1.000000" fill-rule="nonzero"/>
		<path id="Vector" d="M37.84 13.15C37.04 13.5 37.6 14.8 38.41 14.45C39.21 14.1 38.64 12.8 37.84 13.15Z" fill="#EE8034" fill-opacity="1.000000" fill-rule="nonzero"/>
		<path id="Vector" d="M31.29 24.05C30.49 24.4 31.03 25.63 31.83 25.28C32.63 24.93 32.15 23.67 31.29 24.05Z" fill="#EE8034" fill-opacity="1.000000" fill-rule="nonzero"/>
		<path id="Vector" d="M21.65 30.41L21.59 30.44C21.35 30.55 21.53 30.98 21.78 30.87L21.84 30.84C22.09 30.73 21.9 30.3 21.65 30.41Z" fill="#EE8034" fill-opacity="1.000000" fill-rule="nonzero"/>
		<path id="Vector" d="M28.47 20.8C28.14 20.72 27.97 21.16 28.23 21.27C28.38 21.28 28.47 21.31 28.66 21.23C28.97 21.09 28.78 20.66 28.47 20.8Z" fill="#EE8034" fill-opacity="1.000000" fill-rule="nonzero"/>
		<path id="Vector" d="M27.83 11.14C27.59 11.25 27.78 11.68 28.02 11.58C28.27 11.47 28.08 11.04 27.83 11.14Z" fill="#EE8034" fill-opacity="1.000000" fill-rule="nonzero"/>
		<path id="Vector" d="M25.79 30.95L25.6 31.03C24.8 31.38 25.34 32.62 26.15 32.26L26.33 32.18C27.19 31.8 26.65 30.57 25.79 30.95Z" fill="#EE8034" fill-opacity="1.000000" fill-rule="nonzero"/>
		<path id="Vector" d="M9.3 30.76C8.91 30.71 8.59 31 8.54 31.39C8.48 31.56 8.5 31.78 8.58 31.96C8.74 32.33 9.16 32.44 9.46 32.31C9.77 32.17 9.91 31.82 9.84 31.48C9.98 31.12 9.6 30.77 9.3 30.76Z" fill="#EE8034" fill-opacity="1.000000" fill-rule="nonzero"/>
		<path id="Vector" d="M40.74 25.12C39.94 25.47 40.5 26.77 41.31 26.42C42.14 25.97 41.6 24.74 40.74 25.12Z" fill="#EE8034" fill-opacity="1.000000" fill-rule="nonzero"/>
	</g>
</svg>
