<svg width="125.000000" height="134.000000" viewBox="0 0 125 134" fill="none" xmlns="http://www.w3.org/2000/svg" xmlns:xlink="http://www.w3.org/1999/xlink">
	<desc>
			Created with Pixso.
	</desc>
	<defs>
		<clipPath id="clip414_75">
			<rect id="Frame" width="76.800003" height="58.700001" transform="translate(18.149658 53.565186) rotate(18.010317)" fill="white" fill-opacity="0"/>
		</clipPath>
	</defs>
	<rect id="Frame" width="76.800003" height="58.700001" transform="translate(18.149658 53.565186) rotate(18.010317)" fill="#FFFFFF" fill-opacity="0"/>
	<g clip-path="url(#clip414_75)">
		<path id="Vector" d="M79.77 111.45C75.87 123.43 56.45 127.85 36.39 121.32C16.26 114.67 3.15 99.68 7.01 87.8C7.23 87.13 7.54 86.5 7.82 85.96C13.03 75.45 31.44 71.87 50.46 78.05C69.48 84.23 82.26 97.96 80.26 109.61C80.1 110.09 79.98 110.78 79.77 111.45Z" fill="#F7AD1A" fill-opacity="1.000000" fill-rule="nonzero"/>
		<path id="Vector" d="M80.19 109.49C78.76 111.96 75.95 113.47 73.22 115.74C70.49 118 67.18 119.45 63.37 118.21C61.47 117.59 59.13 117.67 57.11 118.38C53.89 119.55 50.19 118.97 47.27 117.29C44.7 115.82 41.5 114.99 38.33 115.01C33.21 114.93 29.37 113.15 26.15 109.79C23.25 106.75 19.88 104.49 16.55 103.1C11.63 101.08 9.46 98.06 8.86 93.44C8.52 90.6 7.49 88.27 7.73 85.93C12.93 75.42 31.34 71.84 50.36 78.02C69.41 84.11 82.19 97.83 80.19 109.49Z" fill="#EE8034" fill-opacity="1.000000" fill-rule="nonzero"/>
		<path id="Vector" d="M81.74 105.36C80.66 108.69 77.42 110.27 74.24 112.91C71.51 115.18 68.2 116.63 64.39 115.39C62.49 114.77 60.15 114.85 58.13 115.56C54.82 116.69 51.21 116.15 48.29 114.47C45.72 113 42.52 112.17 39.36 112.19C34.23 112.1 30.39 110.33 27.17 106.97C24.27 103.92 20.9 101.67 17.54 100.37C12.53 98.32 10.39 95.2 9.79 90.59C9.38 87.3 8.1 84.47 8.99 81.71C12.33 71.44 31.28 68.45 51.35 74.98C71.42 81.5 85.08 95.09 81.74 105.36Z" fill="#F7ADBB" fill-opacity="1.000000" fill-rule="nonzero"/>
		<path id="Vector" d="M84.04 99.27C80.14 111.26 60.76 115.58 40.69 109.05C20.63 102.53 7.52 87.54 11.38 75.65C11.75 74.51 12.31 73.43 12.97 72.38C18.97 62.98 36.57 59.97 54.63 65.84C72.8 71.75 85.26 84.53 84.65 95.79C84.59 96.93 84.41 98.13 84.04 99.27Z" fill="#EE8034" fill-opacity="1.000000" fill-rule="nonzero"/>
		<path id="Vector" d="M84.48 95.32C78.39 104.69 60.8 107.7 42.63 101.8C24.56 95.92 12.1 83.14 12.68 71.97C18.81 62.5 36.4 59.5 54.47 65.37C72.64 71.28 85.1 84.06 84.48 95.32Z" fill="#F7AD1A" fill-opacity="1.000000" fill-rule="nonzero"/>
		<path id="Vector" d="M54.88 73.18C54.94 77.51 46.97 81.02 37.16 81.09C27.36 81.16 19.3 77.81 19.21 73.57C19.15 69.24 27.12 65.73 36.92 65.66C46.76 65.49 54.78 68.94 54.88 73.18Z" fill="#FFC928" fill-opacity="1.000000" fill-rule="nonzero"/>
		<path id="Vector" d="M61.36 86.22C60.98 86.1 60.77 86.77 61.15 86.89C61.65 86.95 61.84 86.38 61.36 86.22Z" fill="#EE8034" fill-opacity="1.000000" fill-rule="nonzero"/>
		<path id="Vector" d="M67.63 82.48C66.39 82.07 65.74 84.07 66.98 84.47C68.22 84.88 68.86 82.88 67.63 82.48Z" fill="#EE8034" fill-opacity="1.000000" fill-rule="nonzero"/>
		<path id="Vector" d="M49.61 88.08C48.38 87.68 47.76 89.58 48.99 89.98C50.23 90.39 50.94 88.51 49.61 88.08Z" fill="#EE8034" fill-opacity="1.000000" fill-rule="nonzero"/>
		<path id="Vector" d="M32.64 85.61L32.55 85.58C32.17 85.46 31.95 86.13 32.33 86.25L32.43 86.28C32.81 86.4 33.02 85.74 32.64 85.61Z" fill="#EE8034" fill-opacity="1.000000" fill-rule="nonzero"/>
		<path id="Vector" d="M49.69 81.69C49.4 81.28 48.77 81.6 48.97 81.98C49.13 82.14 49.19 82.27 49.48 82.36C49.95 82.51 50.17 81.85 49.69 81.69Z" fill="#EE8034" fill-opacity="1.000000" fill-rule="nonzero"/>
		<path id="Vector" d="M58.53 70.37C58.15 70.25 57.93 70.91 58.31 71.04C58.69 71.16 58.91 70.49 58.53 70.37Z" fill="#EE8034" fill-opacity="1.000000" fill-rule="nonzero"/>
		<path id="Vector" d="M36.7 90.3L36.41 90.2C35.17 89.8 34.56 91.7 35.79 92.11L36.08 92.2C37.41 92.63 38.03 90.73 36.7 90.3Z" fill="#EE8034" fill-opacity="1.000000" fill-rule="nonzero"/>
		<path id="Vector" d="M18.61 73.8C18.23 73.36 17.6 73.36 17.16 73.74C16.9 73.87 16.72 74.13 16.62 74.41C16.44 74.98 16.79 75.52 17.27 75.67C17.74 75.83 18.24 75.57 18.49 75.12C19 74.87 18.93 74.11 18.61 73.8Z" fill="#EE8034" fill-opacity="1.000000" fill-rule="nonzero"/>
		<path id="Vector" d="M59.02 98.61C57.78 98.2 57.13 100.2 58.37 100.6C59.73 100.94 60.35 99.04 59.02 98.61Z" fill="#EE8034" fill-opacity="1.000000" fill-rule="nonzero"/>
	</g>
	<path id="Vector" d="M108.62 22.08C108.36 21.7 107.94 21.48 107.52 21.29C106.05 20.59 104.53 19.94 102.91 19.7C101.3 19.47 99.57 19.65 98.19 20.51C99.7 17.7 101.5 15.06 103.56 12.63C103.4 12.49 103.24 12.34 103.08 12.2C101.18 13.56 99.76 15.48 98.6 17.5C97.43 19.52 96.47 21.65 95.3 23.67C96.31 19.59 95.76 15.15 93.78 11.43C93.3 11.58 92.84 11.73 92.37 11.88C93.92 13.24 94.37 15.3 94.64 17.35C94.9 19.4 95.03 21.44 94.55 23.45L94.07 25.87C94.54 24.03 95.93 23.06 97.66 22.21C99.65 21.24 101.02 21.05 103.09 21.09C104.52 21.11 107.55 22.24 108.49 23.32C108.88 23.05 108.88 22.46 108.62 22.08Z" fill="#E08CB8" fill-opacity="1.000000" fill-rule="nonzero"/>
	<path id="Vector" d="M94.08 25.86C94.04 25.99 94.02 26.11 94 26.25L94.08 25.86Z" fill="#E08CB8" fill-opacity="1.000000" fill-rule="nonzero"/>
	<path id="Vector" d="M96.23 21.42L43.66 63.59C43.66 63.59 45.14 69.35 50.49 74.31C54.73 78.25 62.85 82.75 62.85 82.75C62.85 82.75 71.03 87.13 76.64 88.55C83.71 90.35 89.36 88.47 89.36 88.47L96.23 21.42Z" fill="#46A5AA" fill-opacity="1.000000" fill-rule="nonzero"/>
	<path id="Vector" d="M92.34 36.82C92.97 37.43 93.68 38.04 94.44 38.46L94.88 34.27C93.5 33.25 92.08 32.28 90.83 31.11C89.82 30.14 88.94 29.03 88.22 27.82L86 29.6C87.9 32.18 90.03 34.6 92.34 36.82Z" fill="#E08CB8" fill-opacity="1.000000" fill-rule="nonzero"/>
	<path id="Vector" d="M91.12 66.27C91.26 66.31 91.42 66.35 91.58 66.39L92.02 62.12C88.68 59.29 84.89 56.99 81.63 54.06C77.54 50.36 74.37 45.64 72.47 40.46L67.89 44.12C71.49 48.19 74.47 52.76 78.02 56.86C81.59 60.97 85.91 64.68 91.12 66.27Z" fill="#E08CB8" fill-opacity="1.000000" fill-rule="nonzero"/>
	<path id="Vector" d="M90.71 74.77C90.53 74.66 90.35 74.54 90.17 74.42C84.2 70.65 78.19 66.84 72.96 62.11C68.68 58.24 64.9 53.7 62.41 48.52L57.09 52.78C64.04 65.11 75.26 75 88.39 80.31C88.92 80.52 89.51 80.72 90.1 80.83L90.71 74.77Z" fill="#E08CB8" fill-opacity="1.000000" fill-rule="nonzero"/>
	<path id="Vector" d="M82.73 33.99C82.51 33.59 82.3 33.17 82.09 32.73L78.53 35.58C81.52 40.22 84.87 44.62 88.54 48.73C89.85 50.2 91.24 51.65 93 52.51L93.53 47.37C89.21 43.57 85.54 39.02 82.73 33.99Z" fill="#E08CB8" fill-opacity="1.000000" fill-rule="nonzero"/>
	<path id="Vector" d="M57.33 75.31C59.26 77.96 61.2 80.63 63.39 83.06C65.36 84.08 71.88 87.35 76.59 88.55C77.74 88.84 78.86 89.03 79.91 89.15C79.7 88.69 79.37 88.27 79.04 87.88C76.24 84.54 72.64 81.95 69.59 78.82C63.79 72.89 60.1 65.16 54.35 59.16C53.6 58.38 52.81 57.61 52.13 56.77L46.94 60.93C47.55 61.87 48.22 62.79 48.87 63.69C51.69 67.57 54.51 71.45 57.33 75.31Z" fill="#E08CB8" fill-opacity="1.000000" fill-rule="nonzero"/>
	<g opacity="0.340000">
		<path id="Vector" d="M58.32 58.85C57.13 59.87 55.88 60.95 55.34 62.41C54.8 63.88 55.23 65.84 56.67 66.46C57.67 66.89 58.86 66.55 59.73 65.9C60.59 65.25 61.21 64.33 61.83 63.43C66.27 56.99 71.66 51.21 77.76 46.3C78.8 45.46 82.14 41.78 78.7 41.94C76.7 42.04 73.67 45.78 72.19 47.05C67.57 50.99 62.94 54.92 58.32 58.85Z" fill="#FFFFFF" fill-opacity="1.000000" fill-rule="nonzero"/>
	</g>
	<g opacity="0.340000">
		<path id="Vector" d="M81.25 39.3C81.13 39.51 81 39.74 81.02 39.98C81.05 40.45 81.6 40.74 82.06 40.72C83 40.69 83.71 39.91 84.32 39.18C85.12 38.22 89.58 33.9 85.97 34.39C83.83 34.67 82.2 37.64 81.25 39.3Z" fill="#FFFFFF" fill-opacity="1.000000" fill-rule="nonzero"/>
	</g>
	<path id="Vector" d="M106.55 29.78C107.13 27.32 106.24 24.56 104.31 22.9C102.39 21.25 99.53 20.77 97.18 21.7C98.33 20.02 99.86 18.61 101.61 17.59C102.55 17.04 103.64 16.59 104.72 16.76C104.66 16.33 104.58 15.9 104.52 15.46C100.45 15.52 96.56 18.27 95.15 22.08C95.33 20.21 94.25 18.34 92.7 17.28C91.15 16.2 89.19 15.84 87.31 15.92C86.96 15.93 86.58 15.97 86.3 16.18C85.76 16.59 85.82 17.4 85.94 18.07C87.77 17.11 90.16 17.3 91.82 18.54C93.49 19.78 94.35 22.01 93.96 24.04L94.62 25.36C95.65 23.66 97.79 22.8 99.75 23.06C101.72 23.32 103.47 24.62 104.51 26.3C104.86 26.87 105.15 27.5 105.15 28.16C105.16 28.82 104.82 29.52 104.22 29.8C105.02 29.9 105.79 29.9 106.55 29.78Z" fill="#46A5AA" fill-opacity="1.000000" fill-rule="nonzero"/>
</svg>
