<svg width="76.000000" height="69.000000" viewBox="0 0 76 69" fill="none" xmlns="http://www.w3.org/2000/svg" xmlns:xlink="http://www.w3.org/1999/xlink">
	<desc>
			Created with Pixso.
	</desc>
	<defs>
		<clipPath id="clip414_111">
			<rect id="Frame" width="61.753811" height="47.384949" transform="translate(0.000000 25.551025) rotate(-24.440979)" fill="white" fill-opacity="0"/>
		</clipPath>
	</defs>
	<rect id="Frame" width="61.753811" height="47.384949" transform="translate(0.000000 25.551025) rotate(-24.440979)" fill="#FFFFFF" fill-opacity="0"/>
	<g clip-path="url(#clip414_111)">
		<path id="Vector" d="M68.24 26.45C72.45 35.71 63.29 48.92 47.78 55.97C32.17 62.97 16.19 61.19 12.02 52C11.79 51.49 11.62 50.94 11.5 50.47C8.87 41.37 17.89 29.21 32.58 22.53C47.28 15.85 62.37 17.06 67.53 25.09C67.7 25.46 68.01 25.94 68.24 26.45Z" fill="#78CCCA" fill-opacity="1.000000" fill-rule="nonzero"/>
		<path id="Vector" d="M67.42 25.05C67.92 27.31 67.07 29.73 66.68 32.57C66.28 35.41 65.1 38.08 62.16 39.41C60.69 40.08 59.34 41.4 58.52 42.93C57.24 45.37 54.72 47.05 52.06 47.64C49.73 48.16 47.37 49.41 45.5 51.15C42.4 53.89 39.15 54.92 35.4 54.68C32.01 54.44 28.78 54.94 26.04 55.92C22.01 57.39 19.07 56.78 16.19 54.36C14.44 52.85 12.56 52.02 11.42 50.5C8.8 41.41 17.81 29.24 32.51 22.56C47.17 15.81 62.27 17.02 67.42 25.05Z" fill="#5EC4BA" fill-opacity="1.000000" fill-rule="nonzero"/>
		<path id="Vector" d="M66.1 21.75C67.27 24.32 66.19 27.03 65.75 30.33C65.35 33.17 64.17 35.84 61.23 37.17C59.76 37.84 58.41 39.16 57.6 40.69C56.24 43.17 53.79 44.81 51.14 45.4C48.8 45.92 46.45 47.17 44.57 48.91C41.47 51.65 38.22 52.69 34.47 52.44C31.09 52.2 27.85 52.7 25.14 53.75C21.04 55.26 18.07 54.58 15.19 52.16C13.16 50.42 10.85 49.43 9.88 47.3C6.27 39.36 15.94 27.26 31.44 20.21C47.02 13.13 62.49 13.81 66.1 21.75Z" fill="#EB5660" fill-opacity="1.000000" fill-rule="nonzero"/>
		<path id="Vector" d="M63.83 16.75C68.04 26.01 58.85 39.14 43.34 46.19C27.76 53.27 11.79 51.49 7.61 42.3C7.21 41.42 6.96 40.47 6.78 39.49C5.27 30.51 14.11 19.13 28.07 12.79C42.1 6.41 56.49 7.23 62.26 14.27C62.85 14.98 63.4 15.8 63.83 16.75Z" fill="#5EC4BA" fill-opacity="1.000000" fill-rule="nonzero"/>
		<path id="Vector" d="M62.56 14.93C64.07 23.91 55.23 35.29 41.19 41.67C27.23 48.01 12.85 47.19 7.08 40.15C5.57 31.17 14.41 19.79 28.37 13.45C42.41 7.07 56.79 7.89 62.56 14.93Z" fill="#78CCCA" fill-opacity="1.000000" fill-rule="nonzero"/>
		<path id="Vector" d="M32.56 17.22C34.96 19.76 32.12 26.2 26.32 31.58C20.56 37.04 13.9 39.36 11.53 36.88C9.13 34.34 11.97 27.9 17.77 22.52C23.54 17.06 30.2 14.74 32.56 17.22Z" fill="#9BD7D5" fill-opacity="1.000000" fill-rule="nonzero"/>
		<path id="Vector" d="M43.53 21.45C43.24 21.59 43.47 22.1 43.77 21.97C44.1 21.73 43.9 21.29 43.53 21.45Z" fill="#5EC4BA" fill-opacity="1.000000" fill-rule="nonzero"/>
		<path id="Vector" d="M45.22 15.81C44.27 16.24 44.94 17.71 45.89 17.28C46.85 16.84 46.18 15.37 45.22 15.81Z" fill="#5EC4BA" fill-opacity="1.000000" fill-rule="nonzero"/>
		<path id="Vector" d="M37.55 28.96C36.59 29.4 37.29 30.94 38.25 30.51C39.28 30.04 38.58 28.49 37.55 28.96Z" fill="#5EC4BA" fill-opacity="1.000000" fill-rule="nonzero"/>
		<path id="Vector" d="M26.1 36.74L26.02 36.77C25.73 36.9 25.96 37.42 26.26 37.29L26.33 37.25C26.62 37.12 26.39 36.6 26.1 36.74Z" fill="#5EC4BA" fill-opacity="1.000000" fill-rule="nonzero"/>
		<path id="Vector" d="M34.11 25.11L34.04 25.15C33.72 25.03 33.52 25.56 33.84 25.68C34.02 25.69 34.13 25.73 34.35 25.63C34.71 25.46 34.48 24.95 34.11 25.11Z" fill="#5EC4BA" fill-opacity="1.000000" fill-rule="nonzero"/>
		<path id="Vector" d="M33.21 13.56C32.91 13.69 33.15 14.2 33.44 14.07C33.73 13.94 33.5 13.42 33.21 13.56Z" fill="#7AC143" fill-opacity="1.000000" fill-rule="nonzero"/>
		<path id="Vector" d="M31.06 37.32L30.84 37.42C29.88 37.85 30.59 39.4 31.54 38.96L31.76 38.86C32.76 38.32 32.09 36.85 31.06 37.32Z" fill="#5EC4BA" fill-opacity="1.000000" fill-rule="nonzero"/>
		<path id="Vector" d="M11.3 37.34C10.83 37.29 10.46 37.64 10.4 38.11C10.32 38.32 10.35 38.57 10.45 38.79C10.65 39.24 11.15 39.36 11.52 39.2C11.89 39.03 12.05 38.6 11.95 38.2C12.11 37.77 11.66 37.36 11.3 37.34Z" fill="#5EC4BA" fill-opacity="1.000000" fill-rule="nonzero"/>
		<path id="Vector" d="M48.88 30.1C47.93 30.54 48.6 32.01 49.55 31.57C50.51 31.14 49.91 29.64 48.88 30.1Z" fill="#5EC4BA" fill-opacity="1.000000" fill-rule="nonzero"/>
	</g>
</svg>
