<svg width="69.000000" height="60.000000" viewBox="0 0 69 60" fill="none" xmlns="http://www.w3.org/2000/svg" xmlns:xlink="http://www.w3.org/1999/xlink">
	<desc>
			Created with Pixso.
	</desc>
	<defs>
		<clipPath id="clip414_129">
			<rect id="Frame" width="58.000000" height="45.000000" transform="translate(12.202148 -0.020752) rotate(15.733602)" fill="white" fill-opacity="0"/>
		</clipPath>
	</defs>
	<rect id="Frame" width="58.000000" height="45.000000" transform="translate(12.202148 -0.020752) rotate(15.733602)" fill="#FFFFFF" fill-opacity="0"/>
	<g clip-path="url(#clip414_129)">
		<path id="Vector" d="M60.54 42.27C57.92 51.56 43.32 55.57 27.92 51.24C12.47 46.8 2.12 35.76 4.71 26.54C4.86 26.02 5.08 25.53 5.28 25.1C8.93 16.89 22.79 13.55 37.38 17.66C51.98 21.77 62.05 31.86 60.86 40.84C60.76 41.21 60.69 41.75 60.54 42.27Z" fill="#F281A3" fill-opacity="1.000000" fill-rule="nonzero"/>
		<path id="Vector" d="M60.81 40.75C59.79 42.69 57.71 43.94 55.7 45.76C53.69 47.58 51.22 48.8 48.3 47.98C46.84 47.57 45.07 47.7 43.56 48.31C41.15 49.31 38.32 48.99 36.06 47.79C34.07 46.76 31.62 46.22 29.22 46.35C25.34 46.45 22.37 45.21 19.84 42.75C17.56 40.51 14.94 38.9 12.37 37.93C8.59 36.55 6.86 34.31 6.27 30.8C5.93 28.63 5.09 26.88 5.2 25.08C8.85 16.87 22.71 13.53 37.31 17.64C51.93 21.68 62 31.77 60.81 40.75Z" fill="#EE5D7C" fill-opacity="1.000000" fill-rule="nonzero"/>
		<path id="Vector" d="M61.87 37.54C61.14 40.13 58.73 41.44 56.39 43.57C54.38 45.39 51.91 46.61 48.99 45.78C47.54 45.37 45.76 45.51 44.25 46.12C41.77 47.09 39.02 46.8 36.76 45.6C34.77 44.56 32.32 44.03 29.92 44.15C26.03 44.25 23.07 43.02 20.54 40.55C18.25 38.32 15.63 36.7 13.05 35.82C9.19 34.41 7.48 32.1 6.89 28.59C6.5 26.08 5.44 23.96 6.04 21.82C8.29 13.85 22.58 10.94 37.97 15.28C53.37 19.62 64.12 29.57 61.87 37.54Z" fill="#AAD7D4" fill-opacity="1.000000" fill-rule="nonzero"/>
		<path id="Vector" d="M63.28 32.53C60.67 41.82 46.09 45.76 30.69 41.42C15.22 37.06 4.86 26.02 7.46 16.8C7.71 15.91 8.1 15.07 8.57 14.24C12.95 6.8 26.21 3.92 40.07 7.83C53.94 11.73 63.82 21.13 63.67 29.77C63.66 30.64 63.55 31.57 63.28 32.53Z" fill="#EE5D7C" fill-opacity="1.000000" fill-rule="nonzero"/>
		<path id="Vector" d="M63.67 29.77C59.31 37.14 46.05 40.02 32.11 36.09C18.17 32.16 8.44 22.81 8.57 14.24C12.95 6.8 26.21 3.92 40.07 7.83C53.94 11.73 63.82 21.13 63.67 29.77Z" fill="#F281A3" fill-opacity="1.000000" fill-rule="nonzero"/>
		<path id="Vector" d="M40.6 13.79C40.77 17.1 34.82 20.05 27.39 20.42C19.96 20.8 13.75 18.49 13.56 15.25C13.39 11.94 19.34 9 26.78 8.62C34.23 8.17 40.41 10.55 40.6 13.79Z" fill="#F2AEBD" fill-opacity="1.000000" fill-rule="nonzero"/>
		<path id="Vector" d="M45.88 23.56C45.59 23.48 45.44 24 45.74 24.08C46.12 24.11 46.25 23.66 45.88 23.56Z" fill="#EE3686" fill-opacity="1.000000" fill-rule="nonzero"/>
		<path id="Vector" d="M50.53 20.49C49.58 20.22 49.16 21.7 50.11 21.97C51.06 22.23 51.48 20.76 50.53 20.49Z" fill="#EE3686" fill-opacity="1.000000" fill-rule="nonzero"/>
		<path id="Vector" d="M37.02 25.37C36.07 25.1 35.66 26.57 36.61 26.84C37.61 27.2 38.05 25.65 37.02 25.37Z" fill="#EE3686" fill-opacity="1.000000" fill-rule="nonzero"/>
		<path id="Vector" d="M24.09 24.03L24.01 24.01C23.72 23.93 23.58 24.45 23.87 24.53L23.94 24.55C24.23 24.63 24.38 24.11 24.09 24.03Z" fill="#EE3686" fill-opacity="1.000000" fill-rule="nonzero"/>
		<path id="Vector" d="M36.91 20.47C36.68 20.17 36.21 20.44 36.36 20.72C36.49 20.84 36.54 20.93 36.76 20.99C37.12 21.09 37.27 20.58 36.91 20.47Z" fill="#EE3686" fill-opacity="1.000000" fill-rule="nonzero"/>
		<path id="Vector" d="M43.29 11.52C43 11.44 42.85 11.95 43.14 12.04C43.43 12.12 43.58 11.6 43.29 11.52Z" fill="#EE3686" fill-opacity="1.000000" fill-rule="nonzero"/>
		<path id="Vector" d="M27.29 27.48L27.07 27.42C26.12 27.15 25.69 28.7 26.63 28.97L26.85 29.03C27.9 29.25 28.31 27.77 27.29 27.48Z" fill="#EE3686" fill-opacity="1.000000" fill-rule="nonzero"/>
		<path id="Vector" d="M13.12 15.45C12.81 15.12 12.33 15.15 12.01 15.45C11.82 15.56 11.69 15.76 11.63 15.98C11.5 16.42 11.78 16.82 12.15 16.92C12.51 17.03 12.89 16.81 13.06 16.47C13.44 16.25 13.37 15.68 13.12 15.45Z" fill="#EE3686" fill-opacity="1.000000" fill-rule="nonzero"/>
		<path id="Vector" d="M44.45 33.11C43.5 32.85 43.09 34.32 44.04 34.59C45.06 34.88 45.47 33.4 44.45 33.11Z" fill="#EE3686" fill-opacity="1.000000" fill-rule="nonzero"/>
	</g>
</svg>
