<svg width="66.000000" height="54.000000" viewBox="0 0 66 54" fill="none" xmlns="http://www.w3.org/2000/svg" xmlns:xlink="http://www.w3.org/1999/xlink">
	<desc>
			Created with Pixso.
	</desc>
	<defs>
		<clipPath id="clip414_165">
			<rect id="Frame" width="61.753811" height="47.384949" transform="translate(3.904297 0.000000) rotate(5.940315)" fill="white" fill-opacity="0"/>
		</clipPath>
	</defs>
	<rect id="Frame" width="61.753811" height="47.384949" transform="translate(3.904297 0.000000) rotate(5.940315)" fill="#FFFFFF" fill-opacity="0"/>
	<g clip-path="url(#clip414_165)">
		<path id="Vector" d="M62.31 35.29C61.26 45.41 46.68 52.17 29.74 50.41C12.73 48.55 -0.15 38.94 0.89 28.9C0.95 28.34 1.09 27.78 1.22 27.31C3.55 18.14 17.48 12.2 33.54 13.87C49.6 15.54 62 24.22 62.39 33.76C62.35 34.16 62.37 34.73 62.31 35.29Z" fill="#78CCCA" fill-opacity="1.000000" fill-rule="nonzero"/>
		<path id="Vector" d="M62.32 33.67C61.6 35.87 59.65 37.53 57.87 39.78C56.09 42.03 53.73 43.73 50.51 43.4C48.91 43.23 47.08 43.69 45.6 44.59C43.26 46.05 40.24 46.22 37.65 45.38C35.37 44.66 32.7 44.55 30.21 45.1C26.15 45.89 22.82 45.14 19.71 43.03C16.91 41.12 13.87 39.91 11 39.37C6.78 38.6 4.56 36.59 3.3 33.05C2.55 30.86 1.35 29.19 1.14 27.3C3.47 18.13 17.4 12.19 33.46 13.86C49.53 15.46 61.93 24.13 62.32 33.67Z" fill="#5EC4BA" fill-opacity="1.000000" fill-rule="nonzero"/>
		<path id="Vector" d="M62.85 30.15C62.56 32.96 60.26 34.75 58.2 37.38C56.42 39.63 54.06 41.33 50.85 41C49.24 40.83 47.41 41.29 45.93 42.19C43.51 43.64 40.57 43.82 37.98 42.98C35.7 42.26 33.03 42.15 30.54 42.7C26.48 43.49 23.15 42.74 20.04 40.63C17.24 38.72 14.2 37.51 11.33 37.05C7.02 36.27 4.81 34.18 3.55 30.64C2.68 28.11 1.18 26.09 1.43 23.76C2.33 15.09 16.79 9.53 33.73 11.3C50.75 13.07 63.75 21.48 62.85 30.15Z" fill="#EB5660" fill-opacity="1.000000" fill-rule="nonzero"/>
		<path id="Vector" d="M63.42 24.69C62.36 34.81 47.79 41.49 30.85 39.73C13.83 37.96 0.95 28.34 1.99 18.3C2.09 17.34 2.36 16.39 2.7 15.45C5.94 6.94 19.32 1.6 34.57 3.19C49.91 4.78 61.9 12.77 63.32 21.76C63.47 22.67 63.53 23.65 63.42 24.69Z" fill="#5EC4BA" fill-opacity="1.000000" fill-rule="nonzero"/>
		<path id="Vector" d="M63.24 22.48C60 30.99 46.62 36.34 31.29 34.74C16.03 33.15 4.04 25.17 2.62 16.18C5.86 7.67 19.24 2.32 34.5 3.91C49.83 5.5 61.82 13.49 63.24 22.48Z" fill="#78CCCA" fill-opacity="1.000000" fill-rule="nonzero"/>
		<path id="Vector" d="M36.21 9.28C36.99 12.69 31.29 16.8 23.56 18.52C15.83 20.31 8.91 18.94 8.12 15.61C7.34 12.2 13.04 8.09 20.77 6.38C28.5 4.58 35.42 5.95 36.21 9.28Z" fill="#9BD7D5" fill-opacity="1.000000" fill-rule="nonzero"/>
		<path id="Vector" d="M43.53 18.48C43.21 18.45 43.15 19.01 43.47 19.05C43.88 19.01 43.93 18.53 43.53 18.48Z" fill="#5EC4BA" fill-opacity="1.000000" fill-rule="nonzero"/>
		<path id="Vector" d="M47.84 14.47C46.8 14.36 46.63 15.97 47.68 16.07C48.72 16.18 48.89 14.58 47.84 14.47Z" fill="#5EC4BA" fill-opacity="1.000000" fill-rule="nonzero"/>
		<path id="Vector" d="M34.57 21.93C33.52 21.83 33.35 23.51 34.39 23.62C35.52 23.74 35.69 22.05 34.57 21.93Z" fill="#5EC4BA" fill-opacity="1.000000" fill-rule="nonzero"/>
		<path id="Vector" d="M20.76 22.85L20.68 22.84C20.35 22.81 20.3 23.37 20.62 23.4L20.7 23.41C21.02 23.45 21.08 22.88 20.76 22.85Z" fill="#5EC4BA" fill-opacity="1.000000" fill-rule="nonzero"/>
		<path id="Vector" d="M33.55 16.88L33.47 16.87C33.26 16.6 32.81 16.96 33.03 17.23C33.18 17.33 33.25 17.41 33.49 17.44C33.89 17.48 33.95 16.92 33.55 16.88Z" fill="#5EC4BA" fill-opacity="1.000000" fill-rule="nonzero"/>
		<path id="Vector" d="M38.61 6.45C38.29 6.41 38.23 6.98 38.56 7.01C38.88 7.04 38.93 6.48 38.61 6.45Z" fill="#7AC143" fill-opacity="1.000000" fill-rule="nonzero"/>
		<path id="Vector" d="M24.74 25.86L24.5 25.84C23.46 25.73 23.28 27.41 24.33 27.52L24.57 27.55C25.7 27.59 25.87 25.98 24.74 25.86Z" fill="#5EC4BA" fill-opacity="1.000000" fill-rule="nonzero"/>
		<path id="Vector" d="M7.68 15.89C7.31 15.61 6.81 15.72 6.53 16.09C6.35 16.24 6.24 16.47 6.22 16.71C6.17 17.19 6.54 17.56 6.94 17.6C7.34 17.64 7.69 17.35 7.82 16.96C8.17 16.67 7.99 16.08 7.68 15.89Z" fill="#5EC4BA" fill-opacity="1.000000" fill-rule="nonzero"/>
		<path id="Vector" d="M43.77 28.65C42.73 28.55 42.56 30.15 43.6 30.26C44.65 30.37 44.89 28.77 43.77 28.65Z" fill="#5EC4BA" fill-opacity="1.000000" fill-rule="nonzero"/>
	</g>
</svg>
