<svg width="44.000000" height="17.000000" viewBox="0 0 44 17" fill="none" xmlns="http://www.w3.org/2000/svg" xmlns:xlink="http://www.w3.org/1999/xlink">
	<desc>
			Created with Pixso.
	</desc>
	<defs/>
	<path id="Vector" d="M34.25 17L9.03 17C3.76 17 -0.49 13.2 -0.49 8.5C-0.49 3.79 3.76 0 9.03 0L34.25 0C39.52 0 43.77 3.79 43.77 8.5C43.77 13.2 39.52 17 34.25 17Z" fill="#6DCBBA" fill-opacity="1.000000" fill-rule="nonzero"/>
	<path id="100%" d="M28.11 7.69C26.97 7.69 26.35 6.88 26.35 5.92L26.35 5.5C26.35 4.53 26.99 3.72 28.11 3.72C29.26 3.72 29.87 4.53 29.87 5.5L29.87 5.92C29.87 6.88 29.25 7.69 28.11 7.69ZM17.3 8C17.3 10.64 16.09 12.17 14.07 12.17C12.06 12.17 10.84 10.63 10.84 8C10.85 5.38 12.07 3.88 14.07 3.88C16.08 3.88 17.31 5.39 17.3 8ZM24.87 8C24.87 10.64 23.66 12.17 21.64 12.17C19.63 12.17 18.41 10.63 18.42 8C18.42 5.38 19.64 3.88 21.64 3.88C23.65 3.88 24.88 5.39 24.87 8ZM7.44 3.99L9.03 3.99L9.03 12L7.34 12L7.34 5.6L7.3 5.6L5.46 6.75L5.46 5.25L7.44 3.99ZM27.89 12L26.87 12L32.37 3.99L33.39 3.99L27.89 12ZM28.11 4.72C27.65 4.72 27.49 5.12 27.49 5.5L27.49 5.92C27.49 6.3 27.65 6.69 28.11 6.69C28.59 6.69 28.73 6.3 28.73 5.92L28.73 5.5C28.73 5.11 28.6 4.72 28.11 4.72ZM12.57 8C12.56 9.85 13.16 10.77 14.07 10.77C14.99 10.77 15.58 9.85 15.58 8C15.58 6.19 14.98 5.27 14.07 5.27C13.16 5.27 12.57 6.19 12.57 8ZM20.14 8C20.13 9.85 20.73 10.77 21.64 10.77C22.56 10.77 23.15 9.85 23.15 8C23.15 6.19 22.55 5.27 21.64 5.27C20.73 5.27 20.14 6.19 20.14 8ZM32.22 12.27C31.07 12.27 30.46 11.46 30.46 10.49L30.46 10.07C30.46 9.11 31.09 8.3 32.22 8.3C33.37 8.3 33.98 9.11 33.98 10.07L33.98 10.49C33.98 11.46 33.35 12.27 32.22 12.27ZM32.22 9.3C31.75 9.3 31.59 9.69 31.59 10.07L31.59 10.49C31.59 10.87 31.74 11.26 32.22 11.26C32.69 11.26 32.84 10.88 32.84 10.49L32.84 10.07C32.84 9.69 32.71 9.3 32.22 9.3Z" fill="#000000" fill-opacity="1.000000" fill-rule="evenodd"/>
</svg>
