<svg width="16.000000" height="11.000000" viewBox="0 0 16 11" fill="none" xmlns="http://www.w3.org/2000/svg" xmlns:xlink="http://www.w3.org/1999/xlink">
	<desc>
			Created with Pixso.
	</desc>
	<defs/>
	<path id="Vector" d="M0.69 4.34L13.63 4.34L10.54 1.2C10.27 0.92 10.27 0.48 10.54 0.2C10.81 -0.07 11.25 -0.07 11.52 0.2L15.79 4.55C16.06 4.82 16.06 5.27 15.79 5.55L11.52 9.89C11.39 10.03 11.21 10.1 11.03 10.1C10.85 10.1 10.68 10.03 10.54 9.89C10.27 9.62 10.27 9.17 10.54 8.9L13.63 5.75L0.69 5.75C0.31 5.75 0 5.44 0 5.05C0 4.66 0.31 4.34 0.69 4.34Z" fill="#000000" fill-opacity="1.000000" fill-rule="evenodd"/>
</svg>
