<svg width="100.000000" height="100.000000" viewBox="0 0 100 100" fill="none" xmlns="http://www.w3.org/2000/svg" xmlns:xlink="http://www.w3.org/1999/xlink">
	<desc>
			Created with Pixso.
	</desc>
	<defs/>
	<circle id="Ellipse 18" cx="50.000000" cy="50.000000" r="50.000000" fill="#FFFFFF" fill-opacity="1.000000"/>
	<path id="Vector" d="M77.25 60.65C76.47 56.59 72.89 53.68 68.73 53.68L61.96 53.68C57.79 53.68 54.21 56.68 53.44 60.65C52.37 60.94 51.6 61.91 51.6 63.07C51.6 63.75 51.89 64.33 52.28 64.81C51.89 65.3 51.6 65.88 51.6 66.56C51.6 67.72 52.37 68.69 53.44 68.98C54.21 73.04 57.79 75.94 61.96 75.94L68.73 75.94C72.89 75.94 76.47 72.94 77.25 68.98C78.31 68.69 79.09 67.72 79.09 66.56C79.09 65.88 78.8 65.3 78.41 64.81C78.8 64.33 79.09 63.75 79.09 63.07C79.09 62.01 78.31 60.94 77.25 60.65ZM61.96 55.43L68.73 55.43C71.92 55.43 74.63 57.56 75.51 60.56L75.21 60.56L75.02 60.36C74.54 59.88 73.96 59.68 73.38 59.68L72.89 59.68C72.31 59.68 71.73 59.88 71.25 60.36C71.15 60.46 70.96 60.56 70.86 60.56L70.38 60.56C70.18 60.56 70.09 60.46 69.99 60.36C69.5 59.88 68.92 59.68 68.34 59.68L67.86 59.68C67.28 59.68 66.7 59.88 66.21 60.36C66.12 60.46 65.92 60.56 65.83 60.56L65.34 60.56C65.15 60.56 65.05 60.46 64.96 60.36C64.47 59.88 63.89 59.68 63.31 59.68L62.83 59.68C62.25 59.68 61.67 59.88 61.18 60.36C61.08 60.46 60.89 60.56 60.79 60.56L60.31 60.56C60.12 60.56 60.02 60.46 59.92 60.36C59.44 59.88 58.86 59.68 58.28 59.68L57.79 59.68C57.21 59.68 56.63 59.88 56.15 60.36L55.57 60.56L55.28 60.56C56.05 57.56 58.76 55.43 61.96 55.43ZM54.21 62.3L56.25 62.3L56.92 61.62C57.02 61.52 57.21 61.43 57.31 61.43L57.79 61.43C57.99 61.43 58.08 61.52 58.18 61.62C58.67 62.1 59.25 62.3 59.83 62.3L60.41 62.3C60.99 62.3 61.57 62.1 62.05 61.62C62.15 61.52 62.34 61.43 62.44 61.43L62.92 61.43C63.12 61.43 63.21 61.52 63.31 61.62C63.79 62.1 64.38 62.3 64.96 62.3L65.44 62.3C66.02 62.3 66.6 62.1 67.09 61.62C67.18 61.52 67.38 61.43 67.47 61.43L68.15 61.43C68.34 61.43 68.44 61.52 68.54 61.62C69.02 62.1 69.6 62.3 70.18 62.3L70.67 62.3C71.25 62.3 71.83 62.1 72.31 61.62C72.41 61.52 72.6 61.43 72.7 61.43L73.18 61.43C73.38 61.43 73.47 61.52 73.57 61.62L74.25 62.3L76.28 62.3C76.76 62.3 77.15 62.68 77.15 63.17C77.15 63.65 76.76 64.04 76.28 64.04L54.21 64.04C53.73 64.04 53.34 63.65 53.34 63.17C53.34 62.68 53.73 62.3 54.21 62.3ZM68.73 74.3L61.96 74.3C58.76 74.3 56.05 72.17 55.18 69.17L75.41 69.17C74.63 72.17 71.92 74.3 68.73 74.3ZM76.47 67.43L54.21 67.43C53.73 67.43 53.34 67.04 53.34 66.56C53.34 66.07 53.73 65.69 54.21 65.69L76.57 65.69C77.05 65.69 77.44 66.07 77.44 66.56C77.34 67.04 76.96 67.43 76.47 67.43Z" fill="#57B6BB" fill-opacity="1.000000" fill-rule="nonzero"/>
	<path id="Vector" d="M52.47 69.4L48.99 69.4L48.99 44.44L60.31 44.44L60.31 52.85C60.6 52.85 60.89 52.85 61.18 52.85C61.57 52.85 61.86 52.85 62.15 52.95L62.15 44.54L63.99 44.54C64.47 44.54 64.96 44.05 64.96 43.57L64.96 34.95C64.96 34.47 64.47 33.99 63.99 33.99L53.25 33.99C54.12 33.02 54.7 31.66 54.7 30.21C54.7 27.12 52.18 24.6 49.08 24.6C47.25 24.6 45.6 25.47 44.63 26.83C43.57 24.89 41.54 23.63 39.21 23.63C35.83 23.63 33.12 26.34 33.12 29.73C33.12 31.37 33.79 32.83 34.86 33.99L24.6 33.99C24.12 33.99 23.63 34.47 23.63 34.95L23.63 43.37C23.63 43.86 24.12 44.34 24.6 44.34L26.44 44.34L26.44 70.27C26.44 70.75 26.92 71.24 27.41 71.24L53.15 71.24C52.86 70.66 52.67 70.08 52.47 69.4ZM63.12 35.92L63.12 42.5L48.99 42.5L48.99 35.92L63.12 35.92ZM45.31 30.31C45.31 28.18 46.96 26.53 49.08 26.53C51.21 26.53 52.86 28.18 52.86 30.31C52.86 32.44 51.21 34.08 49.08 34.08L45.31 34.08L45.31 30.31ZM39.12 25.57C41.44 25.57 43.37 27.41 43.37 29.83L43.37 34.08L39.12 34.08C36.79 34.08 34.86 32.24 34.86 29.83C34.95 27.5 36.79 25.57 39.12 25.57ZM39.6 69.4L28.37 69.4L28.37 44.44L39.7 44.44L39.7 69.4L39.6 69.4ZM39.6 42.5L25.47 42.5L25.47 35.92L39.6 35.92L39.6 42.5ZM47.15 69.4L41.54 69.4L41.54 44.44L47.15 44.44L47.15 69.4ZM47.15 42.5L41.54 42.5L41.54 35.92L47.15 35.92L47.15 42.5Z" fill="#57B6BB" fill-opacity="1.000000" fill-rule="nonzero"/>
</svg>
