<svg width="100.000000" height="100.000000" viewBox="0 0 100 100" fill="none" xmlns="http://www.w3.org/2000/svg" xmlns:xlink="http://www.w3.org/1999/xlink">
	<desc>
			Created with Pixso.
	</desc>
	<defs/>
	<circle id="Ellipse 16" cx="50.000000" cy="50.000000" r="50.000000" fill="#FFFFFF" fill-opacity="1.000000"/>
	<path id="Vector" d="M77.56 22.43L77.56 77.56L22.43 77.56L22.43 22.43L77.56 22.43ZM77.56 20.9L22.43 20.9C21.59 20.9 20.9 21.59 20.9 22.43L20.9 77.56C20.9 78.4 21.59 79.09 22.43 79.09L77.56 79.09C78.4 79.09 79.09 78.4 79.09 77.56L79.09 22.43C79.09 21.59 78.4 20.9 77.56 20.9Z" fill="#F4976E" fill-opacity="1.000000" fill-rule="nonzero"/>
	<path id="Vector" d="M50.8 37.8C50.8 37.19 50.57 36.65 50.19 36.27C50.57 35.89 50.8 35.35 50.8 34.74C50.8 33.67 50.11 32.83 49.19 32.53C48.43 28.93 45.29 26.33 41.55 26.33L35.51 26.33C31.76 26.33 28.63 29.01 27.94 32.53C27.02 32.83 26.33 33.67 26.33 34.74C26.33 35.35 26.56 35.89 26.94 36.27C26.56 36.65 26.33 37.19 26.33 37.8C26.33 38.87 27.02 39.71 27.94 40.02C28.63 43.61 31.84 46.21 35.51 46.21L41.55 46.21C45.22 46.21 48.43 43.53 49.12 40.02C50.11 39.71 50.8 38.79 50.8 37.8ZM35.51 27.86L41.55 27.86C44.38 27.86 46.82 29.77 47.51 32.45L47.2 32.45L47.05 32.3C46.67 31.91 46.13 31.68 45.6 31.68L45.14 31.68C44.61 31.68 44.07 31.91 43.69 32.3C43.61 32.37 43.46 32.45 43.31 32.45L42.85 32.45C42.69 32.45 42.54 32.37 42.46 32.3C42.08 31.91 41.55 31.68 41.01 31.68L40.55 31.68C40.02 31.68 39.48 31.91 39.1 32.3C39.02 32.37 38.87 32.45 38.72 32.45L38.26 32.45C38.11 32.45 37.95 32.37 37.88 32.3C37.49 31.91 36.96 31.68 36.42 31.68L35.97 31.68C35.43 31.68 34.9 31.91 34.51 32.3C34.44 32.37 34.28 32.45 34.13 32.45L33.67 32.45C33.52 32.45 33.37 32.37 33.29 32.3C32.91 31.91 32.37 31.68 31.84 31.68L31.38 31.68C30.84 31.68 30.31 31.91 29.93 32.3L29.77 32.45L29.47 32.45C30.23 29.77 32.68 27.86 35.51 27.86ZM28.63 33.98L30.46 33.98L31.07 33.37C31.15 33.29 31.3 33.21 31.46 33.21L31.91 33.21C32.07 33.21 32.22 33.29 32.3 33.37C32.68 33.75 33.21 33.98 33.75 33.98L34.21 33.98C34.74 33.98 35.28 33.75 35.66 33.37C35.74 33.29 35.89 33.21 36.04 33.21L36.5 33.21C36.65 33.21 36.81 33.29 36.88 33.37C37.27 33.75 37.8 33.98 38.34 33.98L38.79 33.98C39.33 33.98 39.86 33.75 40.25 33.37C40.32 33.29 40.48 33.21 40.63 33.21L41.09 33.21C41.24 33.21 41.39 33.29 41.47 33.37C41.85 33.75 42.39 33.98 42.92 33.98L43.38 33.98C43.92 33.98 44.45 33.75 44.83 33.37C44.91 33.29 45.06 33.21 45.22 33.21L45.68 33.21C45.83 33.21 45.98 33.29 46.06 33.37L46.67 33.98L48.5 33.98C48.96 33.98 49.27 34.28 49.27 34.74C49.27 35.2 48.96 35.51 48.5 35.51L28.63 35.51C28.17 35.51 27.86 35.2 27.86 34.74C27.86 34.28 28.17 33.98 28.63 33.98ZM28.63 37.04L48.5 37.04C48.96 37.04 49.27 37.34 49.27 37.8C49.27 38.26 48.96 38.57 48.5 38.57L28.63 38.57C28.17 38.57 27.86 38.26 27.86 37.8C27.86 37.34 28.17 37.04 28.63 37.04ZM41.55 44.68L35.51 44.68C32.68 44.68 30.23 42.77 29.54 40.09L47.59 40.09C46.82 42.77 44.38 44.68 41.55 44.68Z" fill="#F4976E" fill-opacity="1.000000" fill-rule="nonzero"/>
	<path id="Vector" d="M72.05 60.05C71.36 56.46 68.15 53.86 64.48 53.86L58.44 53.86C54.77 53.86 51.56 56.53 50.87 60.05C49.96 60.35 49.27 61.2 49.27 62.27C49.27 62.88 49.5 63.41 49.88 63.79C49.5 64.18 49.27 64.71 49.27 65.32C49.27 66.39 49.96 67.24 50.87 67.54C51.56 71.13 54.77 73.73 58.44 73.73L64.48 73.73C68.15 73.73 71.36 71.06 72.05 67.54C72.97 67.24 73.66 66.39 73.66 65.32C73.66 64.71 73.43 64.18 73.05 63.79C73.43 63.41 73.66 62.88 73.66 62.27C73.73 61.2 73.05 60.35 72.05 60.05ZM58.44 55.39L64.48 55.39C67.31 55.39 69.76 57.3 70.45 59.97L70.14 59.97L69.99 59.82C69.61 59.44 69.07 59.21 68.54 59.21L68.08 59.21C67.54 59.21 67.01 59.44 66.62 59.82C66.55 59.9 66.39 59.97 66.24 59.97L65.78 59.97C65.63 59.97 65.48 59.9 65.4 59.82C65.02 59.44 64.48 59.21 63.95 59.21L63.49 59.21C62.95 59.21 62.42 59.44 62.04 59.82C61.96 59.9 61.81 59.97 61.65 59.97L61.2 59.97C61.04 59.97 60.89 59.9 60.81 59.82C60.43 59.44 59.9 59.21 59.36 59.21L58.9 59.21C58.37 59.21 57.83 59.44 57.45 59.82C57.37 59.9 57.22 59.97 57.07 59.97L56.61 59.97C56.46 59.97 56.3 59.9 56.23 59.82C55.84 59.44 55.31 59.21 54.77 59.21L54.31 59.21C53.78 59.21 53.24 59.44 52.86 59.82L52.71 59.97L52.4 59.97C53.17 57.3 55.61 55.39 58.44 55.39ZM51.56 61.5L53.4 61.5L54.01 60.89C54.09 60.81 54.24 60.74 54.39 60.74L54.85 60.74C55 60.74 55.16 60.81 55.23 60.89C55.61 61.27 56.15 61.5 56.68 61.5L57.14 61.5C57.68 61.5 58.21 61.27 58.6 60.89C58.67 60.81 58.83 60.74 58.98 60.74L59.44 60.74C59.59 60.74 59.74 60.81 59.82 60.89C60.2 61.27 60.74 61.5 61.27 61.5L61.73 61.5C62.27 61.5 62.8 61.27 63.18 60.89C63.26 60.81 63.41 60.74 63.57 60.74L64.02 60.74C64.18 60.74 64.33 60.81 64.41 60.89C64.79 61.27 65.32 61.5 65.86 61.5L66.32 61.5C66.85 61.5 67.39 61.27 67.77 60.89C67.85 60.81 68 60.74 68.15 60.74L68.61 60.74C68.76 60.74 68.92 60.81 68.99 60.89L69.61 61.5L71.44 61.5C71.9 61.5 72.21 61.81 72.21 62.27C72.21 62.72 71.9 63.03 71.44 63.03L51.56 63.03C51.1 63.03 50.8 62.72 50.8 62.27C50.8 61.81 51.1 61.5 51.56 61.5ZM64.48 72.21L58.44 72.21C55.61 72.21 53.17 70.29 52.48 67.62L70.52 67.62C69.76 70.29 67.31 72.21 64.48 72.21ZM71.44 66.09L51.56 66.09C51.1 66.09 50.8 65.78 50.8 65.32C50.8 64.87 51.1 64.56 51.56 64.56L71.44 64.56C71.9 64.56 72.21 64.87 72.21 65.32C72.21 65.78 71.82 66.09 71.44 66.09Z" fill="#F4976E" fill-opacity="1.000000" fill-rule="nonzero"/>
	<path id="Vector" d="M39.94 50.87C39.64 49.96 38.79 49.27 37.72 49.27C37.11 49.27 36.58 49.5 36.19 49.88C35.81 49.5 35.28 49.27 34.67 49.27C33.6 49.27 32.75 49.96 32.45 50.87C28.86 51.56 26.26 54.77 26.26 58.44L26.26 64.48C26.26 68.15 28.93 71.36 32.45 72.05C32.75 72.97 33.6 73.66 34.67 73.66C35.28 73.66 35.81 73.43 36.19 73.05C36.58 73.43 37.11 73.66 37.72 73.66C38.79 73.66 39.64 72.97 39.94 72.05C43.53 71.36 46.13 68.15 46.13 64.48L46.13 58.44C46.21 54.77 43.53 51.56 39.94 50.87ZM27.86 64.48L27.86 58.44C27.86 55.61 29.77 53.17 32.45 52.48L32.45 52.79L32.3 52.94C31.91 53.32 31.68 53.86 31.68 54.39L31.68 54.85C31.68 55.38 31.91 55.92 32.3 56.3C32.37 56.38 32.45 56.53 32.45 56.68L32.45 57.14C32.45 57.3 32.37 57.45 32.3 57.53C31.91 57.91 31.68 58.44 31.68 58.98L31.68 59.44C31.68 59.97 31.91 60.51 32.3 60.89C32.37 60.97 32.45 61.12 32.45 61.27L32.45 61.73C32.45 61.88 32.37 62.04 32.3 62.11C31.91 62.5 31.68 63.03 31.68 63.57L31.68 64.02C31.68 64.56 31.91 65.09 32.3 65.48C32.37 65.55 32.45 65.71 32.45 65.86L32.45 66.32C32.45 66.47 32.37 66.62 32.3 66.7C31.91 67.08 31.68 67.62 31.68 68.15L31.68 68.61C31.68 69.15 31.91 69.68 32.3 70.06L32.45 70.22L32.45 70.52C29.77 69.76 27.86 67.31 27.86 64.48ZM34.74 72.21C34.28 72.21 33.98 71.9 33.98 71.44L33.98 69.61L33.37 68.99C33.29 68.92 33.21 68.76 33.21 68.61L33.21 68.15C33.21 68 33.29 67.85 33.37 67.77C33.75 67.39 33.98 66.85 33.98 66.32L33.98 65.86C33.98 65.32 33.75 64.79 33.37 64.41C33.29 64.33 33.21 64.18 33.21 64.02L33.21 63.57C33.21 63.41 33.29 63.26 33.37 63.18C33.75 62.8 33.98 62.27 33.98 61.73L33.98 61.27C33.98 60.74 33.75 60.2 33.37 59.82C33.29 59.74 33.21 59.59 33.21 59.44L33.21 58.98C33.21 58.83 33.29 58.67 33.37 58.6C33.75 58.21 33.98 57.68 33.98 57.14L33.98 56.68C33.98 56.15 33.75 55.61 33.37 55.23C33.29 55.16 33.21 55 33.21 54.85L33.21 54.39C33.21 54.24 33.29 54.08 33.37 54.01L33.98 53.4L33.98 51.56C33.98 51.1 34.28 50.8 34.74 50.8C35.2 50.8 35.51 51.1 35.51 51.56L35.51 71.44C35.51 71.82 35.12 72.21 34.74 72.21ZM38.56 71.44C38.56 71.9 38.26 72.21 37.8 72.21C37.34 72.21 37.04 71.9 37.04 71.44L37.04 51.56C37.04 51.1 37.34 50.8 37.8 50.8C38.26 50.8 38.56 51.1 38.56 51.56L38.56 71.44ZM44.68 64.48C44.68 67.31 42.77 69.76 40.09 70.45L40.09 52.48C42.77 53.17 44.68 55.61 44.68 58.44L44.68 64.48Z" fill="#F4976E" fill-opacity="1.000000" fill-rule="nonzero"/>
	<path id="Vector" d="M67.46 27.94C67.16 27.02 66.32 26.33 65.25 26.33C64.64 26.33 64.1 26.56 63.72 26.94C63.34 26.56 62.8 26.33 62.19 26.33C61.12 26.33 60.28 27.02 59.97 27.94C56.38 28.63 53.78 31.84 53.78 35.51L53.78 41.55C53.78 45.22 56.46 48.43 59.97 49.12C60.28 50.03 61.12 50.72 62.19 50.72C62.8 50.72 63.34 50.49 63.72 50.11C64.1 50.49 64.64 50.72 65.25 50.72C66.32 50.72 67.16 50.03 67.46 49.12C71.06 48.43 73.66 45.22 73.66 41.55L73.66 35.51C73.73 31.84 71.06 28.63 67.46 27.94ZM55.38 41.55L55.38 35.51C55.38 32.68 57.3 30.23 59.97 29.54L59.97 47.59C57.3 46.82 55.38 44.38 55.38 41.55ZM62.27 49.27C61.81 49.27 61.5 48.96 61.5 48.5L61.5 28.63C61.5 28.17 61.81 27.86 62.27 27.86C62.72 27.86 63.03 28.17 63.03 28.63L63.03 48.5C63.03 48.89 62.65 49.27 62.27 49.27ZM66.09 46.67L66.09 48.5C66.09 48.96 65.78 49.27 65.32 49.27C64.87 49.27 64.56 48.96 64.56 48.5L64.56 28.63C64.56 28.17 64.87 27.86 65.32 27.86C65.78 27.86 66.09 28.17 66.09 28.63L66.09 30.46L66.7 31.07C66.78 31.15 66.85 31.3 66.85 31.46L66.85 31.91C66.85 32.07 66.78 32.22 66.7 32.3C66.32 32.68 66.09 33.21 66.09 33.75L66.09 34.21C66.09 34.74 66.32 35.28 66.7 35.66C66.78 35.74 66.85 35.89 66.85 36.04L66.85 36.5C66.85 36.65 66.78 36.81 66.7 36.88C66.32 37.27 66.09 37.8 66.09 38.34L66.09 38.79C66.09 39.33 66.32 39.86 66.7 40.25C66.78 40.32 66.85 40.48 66.85 40.63L66.85 41.09C66.85 41.24 66.78 41.39 66.7 41.47C66.32 41.85 66.09 42.39 66.09 42.92L66.09 43.38C66.09 43.92 66.32 44.45 66.7 44.83C66.78 44.91 66.85 45.06 66.85 45.22L66.85 45.68C66.85 45.83 66.78 45.98 66.7 46.06L66.09 46.67ZM72.21 41.55C72.21 44.38 70.29 46.82 67.62 47.51L67.62 47.2L67.77 47.05C68.15 46.67 68.38 46.13 68.38 45.6L68.38 45.14C68.38 44.6 68.15 44.07 67.77 43.69C67.69 43.61 67.62 43.46 67.62 43.31L67.62 42.85C67.62 42.69 67.69 42.54 67.77 42.46C68.15 42.08 68.38 41.55 68.38 41.01L68.38 40.55C68.38 40.02 68.15 39.48 67.77 39.1C67.69 39.02 67.62 38.87 67.62 38.72L67.62 38.26C67.62 38.11 67.69 37.95 67.77 37.88C68.15 37.49 68.38 36.96 68.38 36.42L68.38 35.97C68.38 35.43 68.15 34.9 67.77 34.51C67.69 34.44 67.62 34.28 67.62 34.13L67.62 33.67C67.62 33.52 67.69 33.37 67.77 33.29C68.15 32.91 68.38 32.37 68.38 31.84L68.38 31.38C68.38 30.84 68.15 30.31 67.77 29.93L67.62 29.77L67.62 29.47C70.29 30.16 72.21 32.6 72.21 35.43L72.21 41.55Z" fill="#F4976E" fill-opacity="1.000000" fill-rule="nonzero"/>
</svg>
