<svg width="100.000000" height="100.000000" viewBox="0 0 100 100" fill="none" xmlns="http://www.w3.org/2000/svg" xmlns:xlink="http://www.w3.org/1999/xlink">
	<desc>
			Created with Pixso.
	</desc>
	<defs/>
	<circle id="Ellipse 18" cx="50.000000" cy="50.000000" r="50.000000" fill="#FFFFFF" fill-opacity="1.000000"/>
	<path id="Vector" d="M70.49 38.27C71.15 33.17 68.92 28.52 64.54 25.83C64.13 25.58 63.72 25.34 63.29 25.11C56.55 21.43 48.49 20.7 41.2 23.12C33.8 25.56 27.92 30.83 24.65 37.94C18.83 50.58 23.33 65.69 35.12 73.09C35.62 73.4 36.12 73.7 36.63 73.97C36.99 74.17 37.36 74.36 37.72 74.54C42.34 76.8 47.65 76.17 51.58 72.88C55.7 69.43 57.32 64.03 55.82 58.79C55.82 58.79 55.82 58.79 55.82 58.79C55.16 56.51 55.27 54.54 56.16 52.92C57.04 51.3 58.63 50.14 60.9 49.46C66.12 47.9 69.79 43.61 70.49 38.27ZM54.12 51.81C52.95 53.95 52.77 56.59 53.59 59.43C54.84 63.77 53.49 68.25 50.09 71.1C46.83 73.83 42.59 74.34 38.74 72.46C37.94 72.07 37.14 71.62 36.35 71.13C25.55 64.34 21.42 50.49 26.76 38.91C29.76 32.39 35.15 27.56 41.92 25.32C48.61 23.1 56 23.77 62.18 27.15C62.56 27.36 62.95 27.57 63.32 27.8C66.91 30 68.73 33.81 68.18 37.97C67.61 42.4 64.57 45.95 60.24 47.24C57.4 48.09 55.29 49.67 54.12 51.81Z" fill="#9FCE9E" fill-opacity="1.000000" fill-rule="nonzero"/>
	<path id="Vector" d="M61.39 28.6C59.16 27.39 56.36 28.21 55.14 30.44C53.93 32.66 54.75 35.47 56.98 36.68C59.2 37.9 62 37.07 63.22 34.85C64.43 32.62 63.61 29.82 61.39 28.6ZM58.09 34.64C56.98 34.04 56.58 32.65 57.18 31.55C57.78 30.45 59.17 30.04 60.27 30.64C61.38 31.24 61.79 32.63 61.18 33.74C60.58 34.84 59.19 35.25 58.09 34.64Z" fill="#9FCE9E" fill-opacity="1.000000" fill-rule="nonzero"/>
	<path id="Vector" d="M42.94 62.4C40.71 61.18 37.91 62 36.7 64.23C35.48 66.46 36.31 69.26 38.53 70.48C40.76 71.69 43.56 70.87 44.78 68.64C45.99 66.41 45.17 63.61 42.94 62.4ZM39.64 68.44C38.54 67.84 38.13 66.45 38.73 65.34C39.34 64.24 40.73 63.83 41.83 64.43C42.93 65.04 43.34 66.42 42.74 67.53C42.14 68.63 40.75 69.04 39.64 68.44Z" fill="#9FCE9E" fill-opacity="1.000000" fill-rule="nonzero"/>
	<path id="Vector" d="M37.1 42.52C38.32 40.29 37.49 37.49 35.27 36.28C33.04 35.06 30.24 35.89 29.02 38.11C27.81 40.34 28.63 43.14 30.86 44.36C33.09 45.57 35.88 44.75 37.1 42.52ZM31.97 42.32C30.87 41.72 30.46 40.33 31.06 39.22C31.66 38.12 33.05 37.71 34.16 38.31C35.26 38.92 35.67 40.31 35.06 41.41C34.46 42.51 33.07 42.92 31.97 42.32Z" fill="#9FCE9E" fill-opacity="1.000000" fill-rule="nonzero"/>
	<path id="Vector" d="M30.19 50.55C27.76 51.27 26.36 53.83 27.08 56.26C27.42 57.44 28.21 58.41 29.29 59C30.36 59.59 31.61 59.73 32.79 59.38C33.97 59.03 34.94 58.25 35.53 57.17C36.12 56.09 36.25 54.85 35.9 53.67C35.19 51.23 32.63 49.84 30.19 50.55ZM32.13 57.15C30.96 57.5 29.64 56.78 29.3 55.61C28.95 54.4 29.64 53.13 30.85 52.78C32.05 52.42 33.32 53.12 33.68 54.32C33.85 54.91 33.78 55.52 33.49 56.06C33.2 56.59 32.72 56.98 32.13 57.15Z" fill="#9FCE9E" fill-opacity="1.000000" fill-rule="nonzero"/>
	<path id="Vector" d="M43.23 26.66C40.8 27.37 39.4 29.93 40.12 32.37C40.47 33.58 41.29 34.54 42.33 35.11C43.36 35.67 44.61 35.84 45.83 35.48C47.01 35.14 47.98 34.35 48.57 33.27C49.16 32.2 49.29 30.95 48.95 29.77C48.25 27.41 45.59 25.96 43.23 26.66ZM45.17 33.26C43.97 33.61 42.7 32.92 42.34 31.71C41.99 30.51 42.68 29.24 43.89 28.88C44.47 28.71 45.09 28.78 45.62 29.07C46.16 29.36 46.55 29.84 46.72 30.43C46.89 31.01 46.83 31.63 46.53 32.16C46.24 32.7 45.76 33.09 45.17 33.26Z" fill="#9FCE9E" fill-opacity="1.000000" fill-rule="nonzero"/>
	<path id="Vector" d="M75.59 54.24L77.22 48.58C78.3 48.18 79.25 47.43 79.84 46.35C80.94 44.33 80.57 38.15 80.48 36.93C80.43 36.14 79.46 35.62 78.77 36C77.7 36.58 72.3 39.61 71.2 41.63C70.61 42.71 70.49 43.92 70.73 45.04L66.86 49.48C66.83 49.51 66.82 49.56 66.79 49.6C66.76 49.65 66.71 49.69 66.68 49.75L55.35 74.1C54.65 75.65 55.27 77.52 56.77 78.34C58.28 79.16 60.18 78.67 61.11 77.23L75.45 54.54C75.49 54.49 75.49 54.42 75.52 54.37C75.54 54.32 75.57 54.29 75.59 54.24ZM59.16 75.98C58.88 76.4 58.32 76.54 57.88 76.3C57.44 76.06 57.26 75.51 57.46 75.06L68.26 51.85L72.83 54.34L59.16 75.98ZM69.56 49.91L71.87 47.26C72.23 47.67 72.65 48.03 73.16 48.31C73.66 48.59 74.2 48.74 74.74 48.83L73.76 52.21L69.56 49.91ZM74.27 46.27C73.01 45.59 72.55 44 73.23 42.74C73.69 41.91 76.09 40.26 78.26 38.96C78.35 41.5 78.26 44.4 77.81 45.24C77.12 46.5 75.53 46.96 74.27 46.27Z" fill="#9FCE9E" fill-opacity="1.000000" fill-rule="nonzero"/>
</svg>
