<svg width="24.000000" height="24.000000" viewBox="0 0 24 24" fill="none" xmlns="http://www.w3.org/2000/svg" xmlns:xlink="http://www.w3.org/1999/xlink">
	<desc>
			Created with Pixso.
	</desc>
	<defs/>
	<circle id="Ellipse 15" cx="12.000000" cy="12.000000" r="12.000000" fill="#E7426A" fill-opacity="1.000000"/>
	<path id="%" d="M9.29 11.9C7.9 11.9 7.16 10.9 7.16 9.71L7.16 9.13C7.16 7.94 7.93 6.94 9.29 6.94C10.67 6.94 11.4 7.94 11.4 9.13L11.4 9.71C11.4 10.9 10.65 11.9 9.29 11.9ZM8.78 18L7.56 18L15.06 7.09L16.28 7.09L8.78 18ZM9.29 7.85C8.54 7.85 8.25 8.47 8.25 9.13L8.25 9.71C8.25 10.37 8.52 10.99 9.29 10.99C10.04 10.99 10.31 10.37 10.31 9.71L10.31 9.13C10.31 8.47 10.06 7.85 9.29 7.85ZM14.72 18.15C13.34 18.15 12.59 17.14 12.59 15.95L12.59 15.37C12.59 14.18 13.36 13.18 14.72 13.18C16.11 13.18 16.83 14.18 16.83 15.37L16.83 15.95C16.83 17.14 16.09 18.15 14.72 18.15ZM14.72 14.09C13.98 14.09 13.68 14.71 13.68 15.37L13.68 15.95C13.68 16.61 13.95 17.23 14.72 17.23C15.47 17.23 15.75 16.61 15.75 15.95L15.75 15.37C15.75 14.71 15.49 14.09 14.72 14.09Z" fill="#FFFFFF" fill-opacity="1.000000" fill-rule="evenodd"/>
</svg>
