<svg width="32.000000" height="31.000000" viewBox="0 0 32 31" fill="none" xmlns="http://www.w3.org/2000/svg" xmlns:xlink="http://www.w3.org/1999/xlink">
	<desc>
			Created with Pixso.
	</desc>
	<defs/>
	<path id="Vector" d="M23.32 20.69C22.51 26.13 19.53 29.55 15.6 29.61C14.72 29.99 13.77 30.24 12.82 30.24C9.02 30.24 5.23 27.21 2.32 21.95C-1.61 14.87 0.62 4.05 0.69 3.61C0.76 3.23 1.23 2.97 1.64 3.16C1.91 3.29 5.84 4.93 9.84 7.78C11.26 4.93 13.09 2.21 14.85 0.13C14.99 0 15.19 -0.13 15.39 -0.13C15.6 -0.13 15.8 0 15.93 0.13C17.09 1.45 18.71 3.73 20.07 6.14C24.61 3.35 30.1 2.21 30.77 2.09L30.84 2.09C30.91 2.09 31.65 2.02 31.65 2.66C31.65 3.04 31.52 12.27 26.98 17.46C25.76 18.79 24.54 19.87 23.32 20.69Z" fill="#E9D4C6" fill-opacity="1.000000" fill-rule="nonzero"/>
	<path id="Vector" d="M23.32 20.69C22.51 26.13 19.53 29.55 15.6 29.61C14.72 29.99 13.77 30.24 12.82 30.24C9.02 30.24 5.23 27.21 2.32 21.95C-1.61 14.87 0.62 4.05 0.69 3.61C0.76 3.23 1.23 2.97 1.64 3.16C1.91 3.29 5.84 4.93 9.84 7.78C11.26 4.93 13.09 2.21 14.85 0.13C14.99 0 15.19 -0.13 15.39 -0.13C15.6 -0.13 15.8 0 15.93 0.13C17.09 1.45 18.71 3.73 20.07 6.14C24.61 3.35 30.1 2.21 30.77 2.09L30.84 2.09C30.91 2.09 31.65 2.02 31.65 2.66C31.65 3.04 31.52 12.27 26.98 17.46C25.76 18.79 24.54 19.87 23.32 20.69ZM25.9 16.64C28.33 13.86 29.42 9.68 29.89 6.64C28.54 9.36 26.37 13.16 23.52 16.26C23.59 17.08 23.59 18.03 23.52 18.92C24.34 18.28 25.08 17.53 25.9 16.64ZM23.32 14.49C26.23 10.95 28.4 6.64 29.49 4.3C27.59 5.5 24.68 7.53 21.97 10C22.58 11.39 23.05 13.03 23.32 14.49ZM17.9 21.39C18.71 15.56 17.29 8.35 15.46 2.66L15.46 2.59C13.16 9.74 10.79 21.95 15.46 27.97C15.46 27.9 17.29 25.88 17.9 21.39ZM3.47 21.39C6.04 26.07 9.29 28.79 12.48 28.98C10.58 28.03 9.29 26.26 8.48 24.3C8.28 23.73 4.21 19.36 1.5 7.72C1.16 11.51 1.16 17.21 3.47 21.39ZM8.14 11.89C5.97 9.17 3.81 6.96 2.38 5.57C3.06 8.67 4.55 14.87 7.4 20.12C6.99 16.89 7.26 14.49 8.14 11.89ZM4.75 6.14C5.91 7.34 7.26 8.79 8.62 10.44C8.82 9.93 9.02 9.43 9.23 8.98C7.74 7.78 6.11 6.83 4.75 6.14ZM8.62 17.08C8.62 21.2 9.7 26.89 13.9 28.16C9.63 21.95 11.53 11.07 13.63 3.99C11.19 7.53 8.62 12.84 8.62 17.08ZM16.95 28.16C22.24 26.64 23.25 17.46 21.15 11.58C20.2 8.98 18.78 6.39 17.29 4.11C19.32 11.2 21.15 21.95 16.95 28.16ZM21.42 8.73C23.32 7.02 25.35 5.5 27.05 4.37C25.15 5 22.78 5.95 20.75 7.21C20.75 7.34 21.15 8.04 21.42 8.73Z" fill="#000000" fill-opacity="1.000000" fill-rule="nonzero"/>
</svg>
