<svg width="100.000000" height="100.000000" viewBox="0 0 100 100" fill="none" xmlns="http://www.w3.org/2000/svg" xmlns:xlink="http://www.w3.org/1999/xlink">
	<desc>
			Created with Pixso.
	</desc>
	<defs/>
	<circle id="Ellipse 17" cx="50.000000" cy="50.000000" r="50.000000" fill="#FFFFFF" fill-opacity="1.000000"/>
	<path id="Vector" d="M58.76 26.48C58.15 23.31 55.29 20.9 52.02 20.9L46.65 20.9C43.38 20.9 40.53 23.31 39.91 26.48C39.03 26.75 38.42 27.51 38.42 28.47C38.42 29.02 38.62 29.5 38.96 29.85C38.62 30.19 38.42 30.67 38.42 31.22C38.42 32.19 39.03 32.94 39.85 33.22C40.46 36.45 43.32 38.79 46.58 38.79L51.96 38.79C55.22 38.79 58.08 36.38 58.69 33.22C59.51 32.94 60.12 32.19 60.12 31.22C60.12 30.67 59.91 30.19 59.57 29.85C59.91 29.5 60.12 29.02 60.12 28.47C60.19 27.51 59.57 26.75 58.76 26.48ZM46.65 22.28L52.02 22.28C54.54 22.28 56.72 24 57.33 26.41L57.06 26.41L56.92 26.27C56.58 25.93 56.17 25.72 55.63 25.72L55.22 25.72C54.74 25.72 54.27 25.93 53.93 26.27C53.86 26.34 53.72 26.41 53.59 26.41L53.18 26.41C53.04 26.41 52.91 26.34 52.84 26.27C52.5 25.93 52.09 25.72 51.55 25.72L51.14 25.72C50.66 25.72 50.19 25.93 49.85 26.27C49.78 26.34 49.64 26.41 49.51 26.41L49.1 26.41C48.96 26.41 48.83 26.34 48.76 26.27C48.42 25.93 48.01 25.72 47.47 25.72L47.06 25.72C46.58 25.72 46.1 25.93 45.77 26.27C45.7 26.34 45.56 26.41 45.42 26.41L45.02 26.41C44.88 26.41 44.74 26.34 44.68 26.27C44.34 25.93 43.93 25.72 43.38 25.72L42.98 25.72C42.5 25.72 42.02 25.93 41.68 26.27L41.55 26.41L41.27 26.41C41.96 24 44.13 22.28 46.65 22.28ZM40.46 27.78L42.09 27.78L42.64 27.23C42.77 27.17 42.91 27.1 42.98 27.1L43.38 27.1C43.52 27.1 43.66 27.17 43.72 27.23C44.06 27.58 44.54 27.78 45.02 27.78L45.42 27.78C45.9 27.78 46.38 27.58 46.72 27.23C46.85 27.17 46.99 27.1 47.06 27.1L47.47 27.1C47.6 27.1 47.74 27.17 47.81 27.23C48.15 27.58 48.62 27.78 49.1 27.78L49.51 27.78C49.98 27.78 50.46 27.58 50.8 27.23C50.93 27.17 51.07 27.1 51.14 27.1L51.55 27.1C51.68 27.1 51.82 27.17 51.89 27.23C52.23 27.58 52.7 27.78 53.18 27.78L53.59 27.78C54.06 27.78 54.54 27.58 54.88 27.23C55.02 27.17 55.15 27.1 55.22 27.1L55.63 27.1C55.77 27.1 55.9 27.17 55.97 27.23L56.51 27.78L58.15 27.78C58.55 27.78 58.83 28.06 58.83 28.47C58.83 28.89 58.55 29.16 58.15 29.16L40.46 29.16C40.05 29.16 39.78 28.89 39.78 28.47C39.78 28.06 40.12 27.78 40.46 27.78ZM52.02 37.42L46.65 37.42C44.13 37.42 41.96 35.7 41.34 33.29L57.4 33.29C56.72 35.7 54.54 37.42 52.02 37.42ZM58.15 31.91L40.46 31.91C40.05 31.91 39.78 31.64 39.78 31.22C39.78 30.81 40.05 30.54 40.46 30.54L58.15 30.54C58.55 30.54 58.83 30.81 58.83 31.22C58.83 31.64 58.55 31.91 58.15 31.91Z" fill="#E67285" fill-opacity="1.000000" fill-rule="nonzero"/>
	<path id="Vector" d="M34.88 64.04C34.27 60.81 31.41 58.47 28.15 58.47L22.77 58.47C19.51 58.47 16.65 60.88 16.04 64.04C15.15 64.32 14.54 65.08 14.54 66.04C14.54 66.59 14.74 67.07 15.08 67.41C14.74 67.76 14.54 68.24 14.54 68.79C14.54 69.75 15.15 70.51 15.97 70.79C16.58 74.02 19.44 76.36 22.7 76.36L28.08 76.36C31.34 76.36 34.2 73.95 34.81 70.79C35.63 70.51 36.24 69.75 36.24 68.79C36.24 68.24 36.04 67.76 35.7 67.41C36.04 67.07 36.24 66.59 36.24 66.04C36.31 65.08 35.7 64.32 34.88 64.04ZM22.77 59.85L28.15 59.85C30.66 59.85 32.84 61.57 33.45 63.97L33.18 63.97L33.04 63.84C32.7 63.49 32.23 63.29 31.75 63.29L31.34 63.29C30.87 63.29 30.39 63.49 30.05 63.84C29.98 63.91 29.85 63.97 29.71 63.97L29.3 63.97C29.17 63.97 29.03 63.91 28.96 63.84C28.62 63.49 28.15 63.29 27.67 63.29L27.26 63.29C26.79 63.29 26.31 63.49 25.97 63.84C25.9 63.91 25.77 63.97 25.63 63.97L25.22 63.97C25.08 63.97 24.95 63.91 24.88 63.84C24.54 63.49 24.06 63.29 23.59 63.29L23.18 63.29C22.7 63.29 22.23 63.49 21.89 63.84C21.82 63.91 21.68 63.97 21.55 63.97L21.14 63.97C21 63.97 20.87 63.91 20.8 63.84C20.46 63.49 19.98 63.29 19.51 63.29L19.1 63.29C18.62 63.29 18.15 63.49 17.81 63.84L17.67 63.97L17.4 63.97C18.08 61.57 20.25 59.85 22.77 59.85ZM16.58 65.35L18.21 65.35L18.76 64.8C18.83 64.73 18.96 64.66 19.1 64.66L19.51 64.66C19.64 64.66 19.78 64.73 19.85 64.8C20.19 65.14 20.66 65.35 21.14 65.35L21.55 65.35C22.02 65.35 22.5 65.14 22.84 64.8C22.91 64.73 23.04 64.66 23.18 64.66L23.59 64.66C23.72 64.66 23.86 64.73 23.93 64.8C24.27 65.14 24.74 65.35 25.22 65.35L25.63 65.35C26.1 65.35 26.58 65.14 26.92 64.8C26.99 64.73 27.13 64.66 27.26 64.66L27.67 64.66C27.81 64.66 27.94 64.73 28.01 64.8C28.35 65.14 28.83 65.35 29.3 65.35L29.71 65.35C30.19 65.35 30.66 65.14 31 64.8C31.07 64.73 31.21 64.66 31.34 64.66L31.75 64.66C31.89 64.66 32.02 64.73 32.09 64.8L32.64 65.35L34.27 65.35C34.68 65.35 34.95 65.63 34.95 66.04C34.95 66.45 34.68 66.73 34.27 66.73L16.58 66.73C16.17 66.73 15.9 66.45 15.9 66.04C15.9 65.63 16.17 65.35 16.58 65.35ZM28.08 74.98L22.7 74.98C20.19 74.98 18.01 73.26 17.4 70.85L33.45 70.85C32.77 73.26 30.59 74.98 28.08 74.98ZM34.27 69.48L16.58 69.48C16.17 69.48 15.9 69.2 15.9 68.79C15.9 68.38 16.17 68.1 16.58 68.1L34.27 68.1C34.68 68.1 34.95 68.38 34.95 68.79C34.95 69.13 34.68 69.48 34.27 69.48Z" fill="#E67285" fill-opacity="1.000000" fill-rule="nonzero"/>
	<path id="Vector" d="M58.96 64.04C58.35 60.81 55.49 58.47 52.23 58.47L46.85 58.47C43.59 58.47 40.73 60.88 40.12 64.04C39.3 64.32 38.69 65.08 38.69 66.04C38.69 66.59 38.89 67.07 39.23 67.41C38.89 67.76 38.69 68.24 38.69 68.79C38.69 69.75 39.3 70.51 40.12 70.79C40.73 74.02 43.59 76.36 46.85 76.36L52.23 76.36C55.49 76.36 58.35 73.95 58.96 70.79C59.78 70.51 60.39 69.75 60.39 68.79C60.39 68.24 60.19 67.76 59.85 67.41C60.19 67.07 60.39 66.59 60.39 66.04C60.39 65.08 59.78 64.32 58.96 64.04ZM46.85 59.85L52.23 59.85C54.74 59.85 56.92 61.57 57.53 63.97L57.26 63.97L57.13 63.84C56.79 63.49 56.31 63.29 55.83 63.29L55.43 63.29C54.95 63.29 54.47 63.49 54.13 63.84C54.06 63.91 53.93 63.97 53.79 63.97L53.38 63.97C53.25 63.97 53.11 63.91 53.04 63.84C52.7 63.49 52.23 63.29 51.75 63.29L51.34 63.29C50.87 63.29 50.39 63.49 50.05 63.84C49.98 63.91 49.85 63.97 49.71 63.97L49.3 63.97C49.17 63.97 49.03 63.91 48.96 63.84C48.62 63.49 48.15 63.29 47.67 63.29L47.26 63.29C46.79 63.29 46.31 63.49 45.97 63.84C45.9 63.91 45.77 63.97 45.63 63.97L45.22 63.97C45.08 63.97 44.95 63.91 44.88 63.84C44.54 63.49 44.06 63.29 43.59 63.29L43.18 63.29C42.7 63.29 42.23 63.49 41.89 63.84L41.75 63.97L41.48 63.97C42.16 61.57 44.34 59.85 46.85 59.85ZM40.66 65.35L42.3 65.35L42.84 64.8C42.91 64.73 43.04 64.66 43.18 64.66L43.59 64.66C43.72 64.66 43.86 64.73 43.93 64.8C44.27 65.14 44.74 65.35 45.22 65.35L45.63 65.35C46.11 65.35 46.58 65.14 46.92 64.8C46.99 64.73 47.13 64.66 47.26 64.66L47.67 64.66C47.81 64.66 47.94 64.73 48.01 64.8C48.35 65.14 48.83 65.35 49.3 65.35L49.71 65.35C50.19 65.35 50.66 65.14 51 64.8C51.07 64.73 51.21 64.66 51.34 64.66L51.75 64.66C51.89 64.66 52.02 64.73 52.09 64.8C52.43 65.14 52.91 65.35 53.38 65.35L53.79 65.35C54.27 65.35 54.74 65.14 55.08 64.8C55.15 64.73 55.29 64.66 55.43 64.66L55.83 64.66C55.97 64.66 56.11 64.73 56.17 64.8L56.72 65.35L58.35 65.35C58.76 65.35 59.03 65.63 59.03 66.04C59.03 66.45 58.76 66.73 58.35 66.73L40.66 66.73C40.25 66.73 39.98 66.45 39.98 66.04C39.98 65.63 40.32 65.35 40.66 65.35ZM52.23 74.98L46.85 74.98C44.34 74.98 42.16 73.26 41.55 70.85L57.6 70.85C56.92 73.26 54.74 74.98 52.23 74.98ZM58.35 69.48L40.66 69.48C40.25 69.48 39.98 69.2 39.98 68.79C39.98 68.38 40.25 68.1 40.66 68.1L58.35 68.1C58.76 68.1 59.03 68.38 59.03 68.79C59.03 69.13 58.76 69.48 58.35 69.48Z" fill="#E67285" fill-opacity="1.000000" fill-rule="nonzero"/>
	<path id="Vector" d="M83.04 64.04C82.43 60.81 79.57 58.47 76.31 58.47L70.93 58.47C67.67 58.47 64.81 60.88 64.2 64.04C63.38 64.32 62.77 65.08 62.77 66.04C62.77 66.59 62.98 67.07 63.32 67.41C62.98 67.76 62.77 68.24 62.77 68.79C62.77 69.75 63.38 70.51 64.2 70.79C64.81 74.02 67.67 76.36 70.93 76.36L76.31 76.36C79.57 76.36 82.43 73.95 83.04 70.79C83.86 70.51 84.47 69.75 84.47 68.79C84.47 68.24 84.27 67.76 83.93 67.41C84.27 67.07 84.47 66.59 84.47 66.04C84.54 65.08 83.93 64.32 83.04 64.04ZM70.93 59.85L76.31 59.85C78.83 59.85 81 61.57 81.62 63.97L81.34 63.97L81.21 63.84C80.87 63.49 80.39 63.29 79.91 63.29L79.51 63.29C79.03 63.29 78.55 63.49 78.21 63.84C78.15 63.91 78.01 63.97 77.87 63.97L77.47 63.97C77.33 63.97 77.19 63.91 77.13 63.84C76.79 63.49 76.31 63.29 75.83 63.29L75.42 63.29C74.95 63.29 74.47 63.49 74.13 63.84C74.06 63.91 73.93 63.97 73.79 63.97L73.38 63.97C73.25 63.97 73.11 63.91 73.04 63.84C72.7 63.49 72.23 63.29 71.75 63.29L71.34 63.29C70.87 63.29 70.39 63.49 70.05 63.84C69.98 63.91 69.85 63.97 69.71 63.97L69.3 63.97C69.17 63.97 69.03 63.91 68.96 63.84C68.62 63.49 68.15 63.29 67.67 63.29L67.26 63.29C66.79 63.29 66.31 63.49 65.97 63.84L65.83 63.97L65.56 63.97C66.24 61.57 68.42 59.85 70.93 59.85ZM64.81 65.35L66.45 65.35L66.99 64.8C67.06 64.73 67.19 64.66 67.33 64.66L67.74 64.66C67.87 64.66 68.01 64.73 68.08 64.8C68.42 65.14 68.89 65.35 69.37 65.35L69.78 65.35C70.25 65.35 70.73 65.14 71.07 64.8C71.14 64.73 71.28 64.66 71.41 64.66L71.82 64.66C71.96 64.66 72.09 64.73 72.16 64.8C72.5 65.14 72.98 65.35 73.45 65.35L73.86 65.35C74.34 65.35 74.81 65.14 75.15 64.8C75.22 64.73 75.36 64.66 75.49 64.66L75.9 64.66C76.04 64.66 76.17 64.73 76.24 64.8C76.58 65.14 77.06 65.35 77.53 65.35L77.94 65.35C78.42 65.35 78.89 65.14 79.23 64.8C79.3 64.73 79.44 64.66 79.57 64.66L79.98 64.66C80.12 64.66 80.25 64.73 80.32 64.8L80.87 65.35L82.5 65.35C82.91 65.35 83.18 65.63 83.18 66.04C83.18 66.45 82.91 66.73 82.5 66.73L64.81 66.73C64.4 66.73 64.13 66.45 64.13 66.04C64.13 65.63 64.4 65.35 64.81 65.35ZM76.31 74.98L70.93 74.98C68.42 74.98 66.24 73.26 65.63 70.85L81.68 70.85C81 73.26 78.83 74.98 76.31 74.98ZM82.5 69.48L64.81 69.48C64.4 69.48 64.13 69.2 64.13 68.79C64.13 68.38 64.4 68.1 64.81 68.1L82.5 68.1C82.91 68.1 83.18 68.38 83.18 68.79C83.18 69.13 82.84 69.48 82.5 69.48Z" fill="#E67285" fill-opacity="1.000000" fill-rule="nonzero"/>
	<path id="Vector" d="M46.92 45.26C46.31 42.03 43.45 39.69 40.19 39.69L34.81 39.69C31.55 39.69 28.69 42.1 28.08 45.26C27.26 45.54 26.65 46.29 26.65 47.26C26.65 47.81 26.85 48.29 27.19 48.63C26.85 48.98 26.65 49.46 26.65 50.01C26.65 50.97 27.26 51.73 28.08 52C28.69 55.24 31.55 57.58 34.81 57.58L40.19 57.58C43.45 57.58 46.31 55.17 46.92 52C47.74 51.73 48.35 50.97 48.35 50.01C48.35 49.46 48.15 48.98 47.81 48.63C48.15 48.29 48.35 47.81 48.35 47.26C48.35 46.29 47.74 45.47 46.92 45.26ZM34.81 40.99L40.19 40.99C42.7 40.99 44.88 42.71 45.49 45.12L45.22 45.12L45.08 44.99C44.74 44.64 44.27 44.43 43.79 44.43L43.38 44.43C42.91 44.43 42.43 44.64 42.09 44.99C42.02 45.05 41.89 45.12 41.75 45.12L41.34 45.12C41.21 45.12 41.07 45.05 41 44.99C40.66 44.64 40.19 44.43 39.71 44.43L39.3 44.43C38.83 44.43 38.35 44.64 38.01 44.99C37.94 45.05 37.81 45.12 37.67 45.12L37.26 45.12C37.13 45.12 36.99 45.05 36.92 44.99C36.58 44.64 36.1 44.43 35.63 44.43L35.22 44.43C34.74 44.43 34.27 44.64 33.93 44.99C33.86 45.05 33.72 45.12 33.59 45.12L33.18 45.12C33.04 45.12 32.91 45.05 32.84 44.99C32.5 44.64 32.02 44.43 31.55 44.43L31.14 44.43C30.66 44.43 30.19 44.64 29.85 44.99L29.71 45.12L29.44 45.12C30.12 42.71 32.3 40.99 34.81 40.99ZM28.62 46.5L30.25 46.5L30.8 45.95C30.87 45.88 31 45.81 31.14 45.81L31.55 45.81C31.68 45.81 31.82 45.88 31.89 45.95C32.23 46.29 32.7 46.5 33.18 46.5L33.59 46.5C34.06 46.5 34.54 46.29 34.88 45.95C34.95 45.88 35.08 45.81 35.22 45.81L35.63 45.81C35.77 45.81 35.9 45.88 35.97 45.95C36.31 46.29 36.79 46.5 37.26 46.5L37.67 46.5C38.15 46.5 38.62 46.29 38.96 45.95C39.03 45.88 39.17 45.81 39.3 45.81L39.71 45.81C39.85 45.81 39.98 45.88 40.05 45.95C40.39 46.29 40.87 46.5 41.34 46.5L41.75 46.5C42.23 46.5 42.7 46.29 43.04 45.95C43.11 45.88 43.25 45.81 43.38 45.81L43.79 45.81C43.93 45.81 44.06 45.88 44.13 45.95L44.68 46.5L46.31 46.5C46.72 46.5 46.99 46.77 46.99 47.19C46.99 47.6 46.72 47.87 46.31 47.87L28.62 47.87C28.21 47.87 27.94 47.6 27.94 47.19C27.94 46.77 28.28 46.5 28.62 46.5ZM40.19 56.13L34.81 56.13C32.3 56.13 30.12 54.41 29.51 52L45.56 52C44.81 54.41 42.7 56.13 40.19 56.13ZM46.31 50.63L28.62 50.63C28.21 50.63 27.94 50.35 27.94 49.94C27.94 49.53 28.21 49.25 28.62 49.25L46.31 49.25C46.72 49.25 46.99 49.53 46.99 49.94C46.99 50.35 46.72 50.63 46.31 50.63Z" fill="#E67285" fill-opacity="1.000000" fill-rule="nonzero"/>
	<path id="Vector" d="M71 45.26C70.39 42.03 67.53 39.69 64.27 39.69L58.89 39.69C55.63 39.69 52.77 42.1 52.16 45.26C51.34 45.54 50.73 46.29 50.73 47.26C50.73 47.81 50.93 48.29 51.28 48.63C50.93 48.98 50.73 49.46 50.73 50.01C50.73 50.97 51.34 51.73 52.16 52C52.77 55.24 55.63 57.58 58.89 57.58L64.27 57.58C67.53 57.58 70.39 55.17 71 52C71.82 51.73 72.43 50.97 72.43 50.01C72.43 49.46 72.23 48.98 71.89 48.63C72.23 48.29 72.43 47.81 72.43 47.26C72.43 46.29 71.82 45.47 71 45.26ZM58.89 40.99L64.27 40.99C66.79 40.99 68.96 42.71 69.57 45.12L69.3 45.12L69.17 44.99C68.83 44.64 68.35 44.43 67.87 44.43L67.47 44.43C66.99 44.43 66.51 44.64 66.17 44.99C66.1 45.05 65.97 45.12 65.83 45.12L65.42 45.12C65.29 45.12 65.15 45.05 65.08 44.99C64.74 44.64 64.27 44.43 63.79 44.43L63.38 44.43C62.91 44.43 62.43 44.64 62.09 44.99C62.02 45.05 61.89 45.12 61.75 45.12L61.34 45.12C61.21 45.12 61.07 45.05 61 44.99C60.66 44.64 60.19 44.43 59.71 44.43L59.3 44.43C58.83 44.43 58.35 44.64 58.01 44.99C57.94 45.05 57.81 45.12 57.67 45.12L57.26 45.12C57.13 45.12 56.99 45.05 56.92 44.99C56.58 44.64 56.1 44.43 55.63 44.43L55.22 44.43C54.74 44.43 54.27 44.64 53.93 44.99L53.79 45.12L53.52 45.12C54.2 42.71 56.38 40.99 58.89 40.99ZM52.7 46.5L54.34 46.5L54.88 45.95C54.95 45.88 55.08 45.81 55.22 45.81L55.63 45.81C55.77 45.81 55.9 45.88 55.97 45.95C56.31 46.29 56.79 46.5 57.26 46.5L57.67 46.5C58.15 46.5 58.62 46.29 58.96 45.95C59.03 45.88 59.17 45.81 59.3 45.81L59.71 45.81C59.85 45.81 59.98 45.88 60.05 45.95C60.39 46.29 60.87 46.5 61.34 46.5L61.75 46.5C62.23 46.5 62.7 46.29 63.04 45.95C63.11 45.88 63.25 45.81 63.38 45.81L63.79 45.81C63.93 45.81 64.06 45.88 64.13 45.95C64.47 46.29 64.95 46.5 65.42 46.5L65.83 46.5C66.31 46.5 66.79 46.29 67.13 45.95C67.19 45.88 67.33 45.81 67.47 45.81L67.87 45.81C68.01 45.81 68.15 45.88 68.21 45.95L68.76 46.5L70.39 46.5C70.8 46.5 71.07 46.77 71.07 47.19C71.07 47.6 70.8 47.87 70.39 47.87L52.7 47.87C52.3 47.87 52.02 47.6 52.02 47.19C52.02 46.77 52.36 46.5 52.7 46.5ZM64.27 56.13L58.89 56.13C56.38 56.13 54.2 54.41 53.59 52L69.64 52C68.96 54.41 66.79 56.13 64.27 56.13ZM70.39 50.63L52.7 50.63C52.3 50.63 52.02 50.35 52.02 49.94C52.02 49.53 52.3 49.25 52.7 49.25L70.39 49.25C70.8 49.25 71.07 49.53 71.07 49.94C71.07 50.35 70.8 50.63 70.39 50.63Z" fill="#E67285" fill-opacity="1.000000" fill-rule="nonzero"/>
</svg>
