<svg width="12.000000" height="19.000000" viewBox="0 0 12 19" fill="none" xmlns="http://www.w3.org/2000/svg" xmlns:xlink="http://www.w3.org/1999/xlink">
	<desc>
			Created with Pixso.
	</desc>
	<defs/>
	<path id="Vector" d="M1.81 17.98C0.86 17.98 0 17.21 0 16.16L0 1.81C0 0.86 0.76 0 1.81 0L9.18 0C10.13 0 11 0.76 11 1.81L11 16.16C11 17.12 10.13 17.98 9.18 17.98L1.81 17.98Z" stroke="#000000" stroke-opacity="1.000000" stroke-width="1.000000" stroke-linejoin="round"/>
	<path id="Vector" d="M1.72 14.34L9.27 14.34" stroke="#000000" stroke-opacity="1.000000" stroke-width="1.000000" stroke-linejoin="round" stroke-linecap="round"/>
	<path id="Vector" d="M6.02 16.16C6.02 16.53 5.72 16.83 5.35 16.83C4.98 16.83 4.68 16.53 4.68 16.16C4.68 15.79 4.98 15.49 5.35 15.49C5.72 15.49 6.02 15.79 6.02 16.16Z" fill="#000000" fill-opacity="1.000000" fill-rule="evenodd"/>
</svg>
