<svg width="100.000000" height="100.000000" viewBox="0 0 100 100" fill="none" xmlns="http://www.w3.org/2000/svg" xmlns:xlink="http://www.w3.org/1999/xlink">
	<desc>
			Created with Pixso.
	</desc>
	<defs/>
	<circle id="Ellipse 19" cx="50.000000" cy="50.000000" r="50.000000" fill="#FFFFFF" fill-opacity="1.000000"/>
	<path id="Vector" d="M73.91 49.86L73.91 42.55L61.94 42.55C62.21 42.28 62.49 42 62.67 41.64L64.31 41.64C66.6 41.64 68.42 39.81 68.42 37.53C68.42 35.24 66.6 33.41 64.31 33.41L63.86 33.41L62.94 33.41L51.07 33.41L51.07 37.98C51.07 39.81 51.8 41.36 52.99 42.55L42.85 42.55L42.85 49.86L44.67 49.86L44.67 48.03L45.95 48.03L47.78 51.69L49.24 51.69L49.24 74.52C49.24 75.53 48.42 76.35 47.41 76.35C46.41 76.35 45.59 75.53 45.59 74.52L43.76 74.52C43.76 76.53 45.4 78.18 47.41 78.18C49.42 78.18 51.07 76.53 51.07 74.52L51.07 61.73L65.68 61.73L65.68 74.52C65.68 76.53 67.33 78.18 69.34 78.18C71.35 78.18 72.99 76.53 72.99 74.52L71.16 74.52C71.16 75.53 70.34 76.35 69.34 76.35C68.33 76.35 67.51 75.53 67.51 74.52L67.51 51.69L68.97 51.69L70.8 48.03L72.08 48.03L72.08 49.86L73.91 49.86ZM64.31 35.24C65.59 35.24 66.6 36.25 66.6 37.53C66.6 38.8 65.59 39.81 64.31 39.81L63.58 39.81C63.77 39.26 63.86 38.62 63.86 37.98L63.86 35.24L64.31 35.24ZM52.89 37.98L52.89 35.24L62.03 35.24L62.03 37.98C62.03 40.54 60.02 42.55 57.46 42.55C54.9 42.55 52.89 40.54 52.89 37.98ZM51.07 59.91L51.07 58.08L65.68 58.08L65.68 59.91L51.07 59.91ZM65.68 56.25L51.07 56.25L51.07 51.69L65.68 51.69L65.68 56.25ZM67.88 49.86L48.88 49.86L47.96 48.03L68.79 48.03L67.88 49.86ZM44.67 46.2L44.67 44.38L72.08 44.38L72.08 46.2L44.67 46.2Z" fill="#8A8CDC" fill-opacity="1.000000" fill-rule="nonzero"/>
	<path id="Vector" d="M39.19 75.44C39.19 75.98 38.83 76.35 38.28 76.35C37.73 76.35 37.36 75.98 37.36 75.44L37.36 60.82L38.28 60.82C39.28 60.82 40.11 60 40.11 58.99L40.11 57.17C40.11 56.16 39.28 55.34 38.28 55.34L23.66 55.34L22.75 36.16C22.75 34.6 21.56 33.41 20.01 33.41C18.45 33.41 17.27 34.6 17.27 36.16L17.27 37.07L19.09 37.07L19.09 36.16C19.09 35.61 19.46 35.24 20.01 35.24C20.56 35.24 20.92 35.61 20.92 36.16L21.83 56.25L21.83 60.82L23.66 60.82L23.66 75.44C23.66 75.98 23.3 76.35 22.75 76.35C22.2 76.35 21.83 75.98 21.83 75.44L21.83 74.52L20.01 74.52L20.01 75.44C20.01 76.99 21.2 78.18 22.75 78.18C24.3 78.18 25.49 76.99 25.49 75.44L25.49 60.82L35.54 60.82L35.54 75.44C35.54 76.99 36.73 78.18 38.28 78.18C39.83 78.18 41.02 76.99 41.02 75.44L41.02 74.52L39.19 74.52L39.19 75.44ZM23.66 57.17L38.28 57.17L38.28 58.99L23.66 58.99L23.66 57.17Z" fill="#8A8CDC" fill-opacity="1.000000" fill-rule="nonzero"/>
	<path id="Vector" d="M53.81 26.66C53.26 27.2 52.89 28.03 52.89 28.85C52.89 29.67 53.26 30.49 53.81 31.04L55 32.23L56.27 30.95L55.09 29.76C54.81 29.49 54.72 29.21 54.72 28.85C54.72 28.48 54.81 28.21 55.09 27.93L55.64 27.39C56.18 26.84 56.55 26.02 56.55 25.19C56.55 24.37 56.18 23.55 55.64 23L54.45 21.81L53.17 23.09L54.36 24.28C54.63 24.55 54.72 24.83 54.72 25.19C54.72 25.56 54.63 25.83 54.36 26.11L53.81 26.66Z" fill="#8A8CDC" fill-opacity="1.000000" fill-rule="nonzero"/>
	<path id="Vector" d="M59.29 26.66C58.74 27.2 58.38 28.03 58.38 28.85C58.38 29.67 58.74 30.49 59.29 31.04L60.48 32.23L61.76 30.95L60.57 29.76C60.29 29.49 60.2 29.21 60.2 28.85C60.2 28.48 60.29 28.21 60.57 27.93L61.12 27.39C61.66 26.84 62.03 26.02 62.03 25.19C62.03 24.37 61.66 23.55 61.12 23L59.93 21.81L58.65 23.09L59.84 24.28C60.11 24.55 60.2 24.83 60.2 25.19C60.2 25.56 60.11 25.83 59.84 26.11L59.29 26.66Z" fill="#8A8CDC" fill-opacity="1.000000" fill-rule="nonzero"/>
</svg>
