<svg width="100.000000" height="100.000000" viewBox="0 0 100 100" fill="none" xmlns="http://www.w3.org/2000/svg" xmlns:xlink="http://www.w3.org/1999/xlink">
	<desc>
			Created with Pixso.
	</desc>
	<defs/>
	<circle id="Ellipse 19" cx="50.000000" cy="50.000000" r="50.000000" fill="#FFFFFF" fill-opacity="1.000000"/>
	<path id="Vector" d="M28.33 78.6L29.25 81.23C29.41 81.74 30 82 31 82L69 82C70 82 70.58 81.74 70.75 81.23L71.66 78.6C72.91 78.6 74 77.5 74 76.22L74 75.03C74 73.76 72.91 72.66 71.66 72.66L70.5 72.66L70.5 47.96C70.5 47.45 70.16 47.11 69.66 47.11L67.66 47.11L67.66 30.64C67.66 30.13 67.33 29.79 66.83 29.79L60.91 29.79L60.91 18.84C60.91 18.33 60.58 18 60.08 18L39.91 18C39.41 18 39.08 18.33 39.08 18.84L39.08 29.79L33.16 29.79C32.66 29.79 32.33 30.13 32.33 30.64L32.33 47.19L30.33 47.19C29.83 47.19 29.5 47.53 29.5 48.04L29.5 72.74L28.33 72.74C27.08 72.74 26 73.85 26 75.12L26 76.22C26.08 77.5 27.08 78.6 28.33 78.6ZM69.08 80.3L31 80.3C30.91 80.3 30.75 80.3 30.66 80.3L30.08 78.6L69.91 78.6L69.33 80.3C69.25 80.3 69.16 80.3 69.08 80.3ZM61.83 61.88C61.33 61.88 61 62.22 61 62.73C61 64.51 59.58 65.87 57.91 65.87C56.16 65.87 54.83 64.42 54.83 62.73C54.83 62.22 54.5 61.88 54 61.88C53.5 61.88 53.16 62.22 53.16 62.73C53.16 64.51 51.75 65.87 50.08 65.87C48.41 65.87 47 64.42 47 62.73C47 62.22 46.66 61.88 46.16 61.88C45.66 61.88 45.33 62.22 45.33 62.73C45.33 64.51 43.91 65.87 42.25 65.87C40.5 65.87 39.16 64.42 39.16 62.73C39.16 62.22 38.83 61.88 38.33 61.88C37.83 61.88 37.5 62.22 37.5 62.73C37.5 64.51 36.08 65.87 34.41 65.87C32.66 65.87 31.33 64.42 31.33 62.73L31.33 58.14C32.16 58.91 33.25 59.33 34.41 59.33C36.08 59.33 37.5 58.48 38.33 57.21C39.16 58.48 40.66 59.33 42.25 59.33C43.91 59.33 45.33 58.48 46.16 57.21C47 58.48 48.5 59.33 50.08 59.33C51.66 59.33 53.16 58.48 54 57.21C54.83 58.48 56.33 59.33 57.91 59.33C59.58 59.33 61 58.48 61.83 57.21C62.66 58.48 64.16 59.33 65.75 59.33C66.91 59.33 68 58.91 68.83 58.14L68.83 62.81C68.83 64.59 67.41 65.95 65.75 65.95C64 65.95 62.66 64.51 62.66 62.81C62.66 62.3 62.33 61.88 61.83 61.88ZM59.33 19.69L59.33 23.26C59.33 24.7 58.16 25.8 56.83 25.8C55.5 25.8 54.33 24.62 54.33 23.26C54.33 22.75 54 22.41 53.5 22.41C53 22.41 52.66 22.75 52.66 23.26C52.66 24.7 51.5 25.8 50.16 25.8C48.75 25.8 47.66 24.62 47.66 23.26C47.66 22.75 47.33 22.41 46.83 22.41C46.33 22.41 46 22.75 46 23.26C46 24.7 44.83 25.8 43.5 25.8C42.16 25.8 41 24.62 41 23.26L41 19.69L59.33 19.69ZM40.75 26.65C41.41 27.25 42.33 27.59 43.25 27.59C44.66 27.59 45.83 26.91 46.58 25.8C47.33 26.82 48.58 27.59 49.91 27.59C51.33 27.59 52.5 26.91 53.25 25.8C54 26.82 55.25 27.59 56.58 27.59C57.5 27.59 58.41 27.25 59.08 26.74L59.08 29.88L40.75 29.88L40.75 26.65ZM66 31.49L66 37.86C66 39.3 64.83 40.4 63.5 40.4C62.16 40.4 61 39.22 61 37.86C61 37.35 60.66 37.01 60.16 37.01C59.66 37.01 59.33 37.35 59.33 37.86C59.33 39.3 58.16 40.4 56.83 40.4C55.5 40.4 54.33 39.22 54.33 37.86C54.33 37.35 54 37.01 53.5 37.01C53 37.01 52.66 37.35 52.66 37.86C52.66 39.3 51.5 40.4 50.16 40.4C48.75 40.4 47.66 39.22 47.66 37.86C47.66 37.35 47.33 37.01 46.83 37.01C46.33 37.01 46 37.35 46 37.86C46 39.3 44.83 40.4 43.5 40.4C42.16 40.4 41 39.22 41 37.86C41 37.35 40.66 37.01 40.16 37.01C39.66 37.01 39.33 37.35 39.33 37.86C39.33 39.3 38.16 40.4 36.83 40.4C35.5 40.4 34.33 39.22 34.33 37.86L34.33 31.58L66 31.58L66 31.49ZM34.08 41.17C34.75 41.76 35.66 42.1 36.58 42.1C38 42.1 39.16 41.42 39.91 40.32C40.66 41.34 41.91 42.1 43.25 42.1C44.66 42.1 45.83 41.42 46.58 40.32C47.33 41.34 48.58 42.1 49.91 42.1C51.33 42.1 52.5 41.42 53.25 40.32C54 41.34 55.25 42.1 56.58 42.1C57.91 42.1 59.16 41.42 59.91 40.32C60.66 41.34 61.91 42.1 63.25 42.1C64.16 42.1 65.08 41.76 65.75 41.25L65.75 47.19L34.08 47.19L34.08 41.17ZM68.91 48.81L68.91 54.41C68.91 56.19 67.5 57.55 65.83 57.55C64.08 57.55 62.75 56.11 62.75 54.41C62.75 53.9 62.41 53.56 61.91 53.56C61.41 53.56 61.08 53.9 61.08 54.41C61.08 56.19 59.66 57.55 58 57.55C56.25 57.55 54.91 56.11 54.91 54.41C54.91 53.9 54.58 53.56 54.08 53.56C53.58 53.56 53.25 53.9 53.25 54.41C53.25 56.19 51.83 57.55 50.16 57.55C48.5 57.55 47.08 56.11 47.08 54.41C47.08 53.9 46.75 53.56 46.25 53.56C45.75 53.56 45.41 53.9 45.41 54.41C45.41 56.19 44 57.55 42.33 57.55C40.58 57.55 39.25 56.11 39.25 54.41C39.25 53.9 38.91 53.56 38.41 53.56C37.91 53.56 37.58 53.9 37.58 54.41C37.58 56.19 36.16 57.55 34.5 57.55C32.75 57.55 31.41 56.11 31.41 54.41L31.41 48.89L68.91 48.89L68.91 48.81ZM31.16 66.38C32 67.14 33.08 67.57 34.25 67.57C35.91 67.57 37.33 66.72 38.16 65.44C39 66.72 40.5 67.57 42.08 67.57C43.75 67.57 45.16 66.72 46 65.44C46.83 66.72 48.33 67.57 49.91 67.57C51.5 67.57 53 66.72 53.83 65.44C54.66 66.72 56.16 67.57 57.75 67.57C59.41 67.57 60.83 66.72 61.66 65.44C62.5 66.72 64 67.57 65.58 67.57C66.75 67.57 67.83 67.14 68.66 66.38L68.66 72.66L31.16 72.66L31.16 66.38ZM27.75 75.12C27.75 74.78 28.08 74.44 28.41 74.44L71.75 74.44C72.08 74.44 72.41 74.78 72.41 75.12L72.41 76.22C72.41 76.56 72.08 76.9 71.75 76.9L28.41 76.9C28.08 76.9 27.75 76.56 27.75 76.22L27.75 75.12Z" fill="#E58383" fill-opacity="1.000000" fill-rule="nonzero"/>
</svg>
