<svg width="55.000000" height="51.000000" viewBox="0 0 55 51" fill="none" xmlns="http://www.w3.org/2000/svg" xmlns:xlink="http://www.w3.org/1999/xlink">
	<desc>
			Created with Pixso.
	</desc>
	<defs/>
	<rect id="фрейм 2" width="54.592010" height="50.569717" transform="translate(-0.475098 0.000000)" fill="#FFFFFF" fill-opacity="0"/>
	<path id="Vector" d="M22 46.15L22 50.56L25.98 48.31L22 46.15Z" fill="#000000" fill-opacity="1.000000" fill-rule="nonzero"/>
	<path id="Vector" d="M29.8 46.15L29.8 50.56L25.82 48.31L29.8 46.15Z" fill="#000000" fill-opacity="1.000000" fill-rule="nonzero"/>
	<path id="Vector" d="M37.59 18.01L37.23 34.47C37.23 34.47 35.17 37 27.07 37C19.09 37 17.82 34.11 17.82 34.11L17.52 18.98C13.23 19.04 9 15.61 9 11.35C9 7.08 12.5 3.6 16.79 3.6C17.88 3.6 18.97 3.84 19.94 4.26C21.21 1.74 23.93 0 26.95 0C29.85 0 32.21 1.62 33.6 3.96C34.87 3 36.44 2.52 38.2 2.52C42.49 2.52 45.99 5.94 45.99 10.27C46.05 14.53 41.94 18.01 37.59 18.01Z" fill="#FFFFFF" fill-opacity="1.000000" fill-rule="nonzero"/>
	<path id="Vector" d="M8.9 21.6C8.9 21.04 8.85 20.58 8.8 20.33C8.7 19.72 8.4 19.16 7.89 18.7C7.38 18.25 6.82 18.05 6.11 18.05C5.4 18.05 4.74 18.3 4.24 18.81C3.68 18.3 3.07 18.05 2.36 18.05C1.7 18.05 1.04 18.3 0.58 18.7C0.13 19.11 -0.23 19.62 -0.38 20.33C-0.43 20.63 -0.48 21.04 -0.48 21.6L-0.48 25.96C-0.48 26.21 -0.28 26.31 -0.13 26.31C0.13 26.31 0.23 26.11 0.23 25.96L0.23 21.44C0.23 20.63 0.38 19.97 0.74 19.47C1.09 18.91 1.65 18.65 2.41 18.65C2.97 18.65 3.43 18.86 3.83 19.26C3.48 19.87 3.32 20.53 3.32 21.44L3.32 25.91C3.32 26.11 3.48 26.26 3.68 26.26C3.93 26.26 4.03 26.06 4.03 25.91L4.03 21.39C4.03 20.73 4.14 20.23 4.29 19.87C4.44 20.28 4.54 20.89 4.54 21.6L4.54 25.96C4.54 26.16 4.69 26.31 4.9 26.31C5.15 26.31 5.25 26.11 5.25 25.96L5.25 21.29C5.25 20.38 5.1 19.72 4.74 19.21C5.1 18.86 5.56 18.65 6.11 18.65C6.62 18.65 7.08 18.81 7.43 19.11C7.79 19.36 8.04 19.77 8.19 20.28C8.29 20.58 8.29 20.94 8.29 21.44L8.29 25.96C8.29 26.16 8.45 26.31 8.65 26.31C8.9 26.31 9 26.11 9 25.96L8.95 25.7L8.95 21.6L8.9 21.6Z" fill="#000000" fill-opacity="1.000000" fill-rule="nonzero"/>
	<path id="Vector" d="M17.12 19.31C16.31 18.5 15.29 18.1 14.13 18.1C12.96 18.1 11.95 18.5 11.13 19.31C10.32 20.12 9.92 21.14 9.92 22.31C9.92 23.47 10.32 24.49 11.18 25.3C12.05 26.11 13.06 26.52 14.23 26.52C15.09 26.52 15.9 26.26 16.56 25.81L16.56 25.91C16.56 26.26 16.76 26.36 16.92 26.36C17.07 26.36 17.27 26.21 17.27 25.91L17.27 25.25C18.08 24.39 18.49 23.42 18.49 22.31C18.39 21.09 17.93 20.07 17.12 19.31ZM16.46 22.36L16.46 24.99C15.75 25.6 14.99 25.91 14.13 25.91C13.16 25.91 12.3 25.55 11.64 24.84C10.93 24.18 10.63 23.37 10.63 22.36C10.63 21.34 10.98 20.53 11.69 19.82C12.4 19.11 13.21 18.76 14.23 18.76C15.19 18.76 16.05 19.11 16.71 19.82C17.37 20.53 17.78 21.34 17.78 22.31C17.78 23.02 17.58 23.62 17.22 24.18L17.22 22.36C17.12 21.85 16.46 21.85 16.46 22.36Z" fill="#000000" fill-opacity="1.000000" fill-rule="nonzero"/>
	<path id="Vector" d="M22.95 26.52C23.91 26.52 24.83 26.21 25.64 25.55C25.84 25.4 25.99 25.3 26.1 25.15L26.15 25.15L26.15 25.1C26.2 25.04 26.2 24.99 26.2 24.89C26.2 24.74 26.1 24.59 25.89 24.59L25.69 24.59L25.64 24.69L25.64 24.79C25.28 25.1 24.88 25.4 24.47 25.6C24.02 25.81 23.51 25.96 23.05 25.96C22.04 25.96 21.23 25.6 20.57 24.89C19.86 24.18 19.5 23.37 19.5 22.36C19.5 21.39 19.86 20.53 20.57 19.87C21.23 19.16 22.04 18.86 23.05 18.86C24.02 18.86 24.88 19.21 25.59 19.92L25.74 20.02L25.94 20.02L25.99 19.97C26.1 19.92 26.15 19.82 26.15 19.72L26.15 19.62L26.1 19.57C26.1 19.57 26.1 19.52 26.04 19.52C25.99 19.47 25.99 19.41 25.94 19.41C25.18 18.6 24.17 18.15 22.95 18.15C21.78 18.15 20.77 18.55 19.96 19.36C19.15 20.18 18.74 21.19 18.74 22.36C18.74 23.47 19.15 24.49 19.96 25.35C20.82 26.11 21.83 26.52 22.95 26.52Z" fill="#000000" fill-opacity="1.000000" fill-rule="nonzero"/>
	<path id="Vector" d="M33.4 19.31C32.59 18.5 31.57 18.1 30.41 18.1C29.24 18.1 28.23 18.5 27.41 19.31C26.6 20.12 26.2 21.14 26.2 22.31C26.2 23.47 26.6 24.49 27.41 25.3C28.28 26.11 29.29 26.52 30.46 26.52C31.32 26.52 32.13 26.26 32.79 25.81L32.79 25.91C32.79 26.26 32.99 26.36 33.14 26.36C33.3 26.36 33.5 26.21 33.5 25.91L33.5 25.25C34.31 24.39 34.72 23.42 34.72 22.31C34.67 21.04 34.26 20.07 33.4 19.31ZM32.74 22.36L32.74 24.99C32.03 25.6 31.27 25.91 30.41 25.91C29.44 25.91 28.58 25.55 27.87 24.84C27.16 24.18 26.86 23.37 26.86 22.36C26.86 21.34 27.21 20.53 27.92 19.82C28.63 19.11 29.44 18.76 30.46 18.76C31.42 18.76 32.28 19.11 32.94 19.82C33.65 20.53 34.01 21.34 34.01 22.31C34.01 23.02 33.8 23.67 33.45 24.23L33.45 22.41C33.4 21.85 32.74 21.85 32.74 22.36Z" fill="#000000" fill-opacity="1.000000" fill-rule="nonzero"/>
	<path id="Vector" d="M35.73 26.36C35.98 26.36 36.09 26.16 36.09 26.01L36.09 22.71C36.09 21.85 36.14 21.34 36.24 20.99C36.39 20.43 36.7 19.97 37.1 19.62C37.51 19.26 37.96 19.06 38.47 18.91C38.72 18.91 38.83 18.7 38.83 18.55C38.83 18.3 38.67 18.25 38.57 18.2L38.52 18.2L38.47 18.2C38.22 18.2 37.91 18.3 37.56 18.5C36.95 18.81 36.44 19.21 36.09 19.77C36.09 19.47 36.09 19.06 36.09 18.6C36.09 18.1 35.38 18.1 35.38 18.6L35.38 26.01C35.38 26.21 35.53 26.36 35.73 26.36Z" fill="#000000" fill-opacity="1.000000" fill-rule="nonzero"/>
	<path id="Vector" d="M46.18 19.31C45.37 18.5 44.35 18.1 43.19 18.1C42.02 18.1 41.01 18.5 40.19 19.31C39.38 20.12 38.98 21.14 38.98 22.31C38.98 23.47 39.38 24.49 40.19 25.3C41.06 26.11 42.07 26.52 43.24 26.52C44.4 26.52 45.42 26.11 46.23 25.25C47.04 24.39 47.45 23.37 47.45 22.2C47.45 21.09 47.04 20.07 46.18 19.31ZM43.19 18.76C44.15 18.76 45.01 19.11 45.67 19.82C46.38 20.53 46.74 21.34 46.74 22.31C46.74 23.32 46.38 24.18 45.62 24.84C44.96 25.55 44.15 25.86 43.14 25.86C42.17 25.86 41.31 25.5 40.65 24.79C39.94 24.08 39.59 23.27 39.59 22.31C39.59 21.29 39.94 20.48 40.65 19.77C41.31 19.06 42.17 18.76 43.19 18.76Z" fill="#000000" fill-opacity="1.000000" fill-rule="nonzero"/>
	<path id="Vector" d="M54.04 20.23C53.94 19.62 53.63 19.11 53.08 18.65C52.57 18.25 51.96 18 51.3 18C50.79 18 50.34 18.1 49.93 18.35C49.63 18.55 49.32 18.76 49.12 19.06L49.12 18.55C49.12 18.05 48.41 18.05 48.41 18.55L48.41 25.96C48.41 26.21 48.61 26.31 48.77 26.31C49.02 26.31 49.12 26.11 49.12 25.96L49.12 21.75C49.12 21.29 49.12 20.89 49.17 20.68C49.27 20.07 49.48 19.62 49.83 19.26C50.24 18.91 50.74 18.7 51.25 18.7C51.66 18.7 52.06 18.81 52.37 19.01C52.82 19.26 53.13 19.67 53.23 20.18C53.33 20.48 53.33 21.04 53.33 21.75L53.33 25.96C53.33 26.16 53.48 26.31 53.68 26.31C53.79 26.31 53.89 26.26 53.94 26.21L54.09 26.21L54.09 21.39C54.14 20.94 54.09 20.53 54.04 20.23Z" fill="#000000" fill-opacity="1.000000" fill-rule="nonzero"/>
	<path id="Vector" d="M15.39 36.1C15.04 36.1 14.99 36.3 14.99 36.46C14.99 36.71 15.19 36.81 15.34 36.81C15.75 36.81 16.05 36.91 16.41 37.11C17.07 37.47 17.42 38.08 17.42 38.84C17.42 39.4 17.22 39.85 16.81 40.26C16.41 40.66 15.95 40.87 15.39 40.87C14.58 40.87 14.02 40.51 13.57 39.8C13.42 39.6 13.31 39.3 13.31 38.94C13.31 38.69 13.16 38.54 12.96 38.54C12.71 38.54 12.6 38.74 12.6 38.89C12.6 39.6 12.91 40.26 13.47 40.72C13.97 41.22 14.63 41.48 15.34 41.48C16.1 41.48 16.76 41.22 17.27 40.66C17.78 40.16 18.08 39.5 18.08 38.74C18.08 37.98 17.83 37.37 17.32 36.86C16.81 36.4 16.15 36.1 15.39 36.1Z" fill="#000000" fill-opacity="1.000000" fill-rule="nonzero"/>
	<path id="Vector" d="M15.24 33.97C15.9 33.97 16.36 34.22 16.66 34.78C16.71 34.88 16.81 35.09 16.87 35.29C16.87 35.54 17.02 35.7 17.22 35.7C17.42 35.7 17.58 35.54 17.58 35.34C17.58 34.73 17.27 34.22 16.76 33.92C16.31 33.51 15.8 33.31 15.19 33.31C14.58 33.31 14.02 33.51 13.57 33.97C13.16 34.48 12.91 34.99 12.91 35.59C12.91 36.2 13.11 36.76 13.57 37.22C13.97 37.67 14.53 37.93 15.14 37.93C15.39 37.93 15.55 37.77 15.55 37.57C15.55 37.37 15.39 37.22 15.19 37.22C14.73 37.22 14.38 37.06 14.08 36.76C13.77 36.46 13.62 36.05 13.62 35.59C13.62 35.14 13.77 34.73 14.08 34.43C14.48 34.12 14.84 33.97 15.24 33.97Z" fill="#000000" fill-opacity="1.000000" fill-rule="nonzero"/>
	<path id="Vector" d="M24.22 36.71C24.22 36.15 24.17 35.75 24.12 35.49C23.97 34.83 23.66 34.33 23.2 33.97C22.7 33.51 22.19 33.31 21.53 33.31C21.07 33.31 20.62 33.41 20.21 33.67C19.86 33.82 19.6 34.07 19.4 34.33L19.4 31.28C19.4 30.78 18.69 30.78 18.69 31.28L18.69 40.97C18.69 41.22 18.89 41.32 19.05 41.32C19.3 41.32 19.4 41.12 19.4 40.97L19.4 36.91C19.4 36.61 19.4 36.35 19.45 36.15C19.45 36 19.45 35.9 19.45 35.85C19.55 35.29 19.76 34.83 20.11 34.48C20.52 34.12 20.92 33.97 21.53 33.97C21.94 33.97 22.34 34.07 22.65 34.27C23.1 34.58 23.36 34.93 23.46 35.39C23.56 35.69 23.56 36.2 23.56 36.91L23.56 40.97C23.56 41.17 23.71 41.32 23.91 41.32C24.17 41.32 24.27 41.12 24.27 40.97L24.22 40.72L24.22 36.71Z" fill="#000000" fill-opacity="1.000000" fill-rule="nonzero"/>
	<path id="Vector" d="M32.03 34.48C31.22 33.67 30.25 33.26 29.14 33.26C28.02 33.26 27.01 33.67 26.25 34.48C25.44 35.29 25.03 36.25 25.03 37.37C25.03 38.48 25.44 39.5 26.25 40.26C27.06 41.07 28.02 41.48 29.19 41.48C30.36 41.48 31.32 41.07 32.08 40.26C32.89 39.45 33.3 38.48 33.3 37.32C33.3 36.15 32.89 35.24 32.03 34.48ZM26.7 39.8C26.04 39.14 25.69 38.33 25.69 37.37C25.69 36.41 26.04 35.59 26.7 34.88C27.36 34.22 28.17 33.87 29.19 33.87C30.1 33.87 30.96 34.22 31.62 34.88C32.28 35.54 32.64 36.35 32.64 37.32C32.64 38.28 32.28 39.14 31.57 39.8C30.91 40.46 30.1 40.82 29.14 40.82C28.23 40.82 27.36 40.46 26.7 39.8Z" fill="#000000" fill-opacity="1.000000" fill-rule="nonzero"/>
	<path id="Vector" d="M38.06 33.26C36.9 33.26 35.93 33.67 35.17 34.48C34.41 35.29 33.96 36.25 33.96 37.37C33.96 38.48 34.36 39.45 35.12 40.26L35.12 43.56C35.12 43.76 35.28 43.91 35.48 43.91C35.73 43.91 35.83 43.71 35.83 43.56L35.83 40.87C36.49 41.32 37.25 41.53 38.06 41.53C39.23 41.53 40.25 41.12 41.01 40.36C41.82 39.55 42.27 38.64 42.27 37.47C42.27 36.3 41.82 35.34 41.01 34.53C40.19 33.67 39.23 33.26 38.06 33.26ZM35.48 37.01C35.33 37.01 35.12 37.17 35.12 37.42L35.12 39.14C34.82 38.64 34.67 38.03 34.67 37.37C34.67 36.46 35.02 35.59 35.68 34.93C36.39 34.22 37.2 33.92 38.17 33.92C39.13 33.92 39.94 34.27 40.65 34.93C41.31 35.59 41.67 36.41 41.67 37.42C41.67 38.38 41.31 39.19 40.6 39.85C39.94 40.51 39.13 40.87 38.17 40.87C37.3 40.87 36.54 40.56 35.88 39.96L35.88 37.42C35.83 37.06 35.63 37.01 35.48 37.01Z" fill="#000000" fill-opacity="1.000000" fill-rule="nonzero"/>
</svg>
